<svg xmlns="http://www.w3.org/2000/svg" xmlns:xlink="http://www.w3.org/1999/xlink" xmlns:lucid="lucid" width="2231.69" height="2091.08"><g transform="translate(443.74916914379037 343.674040709597)" lucid:page-tab-id="0_0"><path d="M-500-500h2500v2500H-500z" fill="#fff"/><path d="M592.5 109.15a6 6 0 0 1 6-6h1161.95a6 6 0 0 1 6 6v1046.5a6 6 0 0 1-6 6H598.5a6 6 0 0 1-6-6z" fill="#fff"/><path d="M628.28 103.15h29.8m14.9 0h29.78m14.9 0h29.8m14.9 0h29.78m14.9 0h29.8m14.9 0h29.8m14.88 0h29.8m14.9 0h29.8m14.88 0h29.8m14.9 0h29.8m14.9 0h29.78m14.9 0h29.8m14.9 0h29.78m14.9 0h29.8m14.9 0h29.78m14.9 0h29.8m14.9 0h29.8m14.88 0h29.8m14.9 0h29.8m14.88 0h29.8m14.9 0h29.8m14.9 0h29.78m14.9 0h29.8m14.9 0h29.78m14.9 0h29.8m14.9 0h14.9l.92.07.92.22.87.36.8.5.72.6.6.72.5.8.35.88.22.9.08.95v15.16m0 15.18v30.34m0 15.16v30.34m0 15.16v30.34m0 15.16v30.33m0 15.18v30.33m0 15.18v30.33m0 15.18v30.33m0 15.18v30.33m0 15.18v30.33m0 15.18v30.33m0 15.18v30.33m0 15.18v30.33m0 15.18v30.33m0 15.18v30.33m0 15.18v30.33m0 15.18v30.33m0 15.18v30.33m0 15.18v30.33m0 15.18v30.33m0 15.18v30.33m0 15.18v30.33m0 15.18v30.33m0 15.18v15.16l-.08.94-.22.92-.36.87-.5.8-.6.72-.73.6-.8.5-.87.35-.92.22-.93.07h-14.9m-14.9 0h-29.8m-14.9 0h-29.78m-14.9 0h-29.8m-14.9 0h-29.78m-14.9 0h-29.8m-14.9 0h-29.8m-14.9 0h-29.8m-14.88 0h-29.8m-14.9 0h-29.8m-14.88 0h-29.8m-14.9 0h-29.8m-14.9 0h-29.78m-14.9 0h-29.8m-14.9 0h-29.78m-14.9 0h-29.8m-14.9 0h-29.78m-14.9 0h-29.8m-14.9 0h-29.78m-14.9 0h-29.8m-14.9 0h-29.8m-14.88 0h-29.8m-14.9 0h-29.8m-14.88 0h-29.8m-14.9 0h-29.8m-14.9 0H628.3m-14.9 0h-14.9l-.93-.07-.92-.22-.87-.36-.8-.5-.72-.6-.6-.73-.5-.8-.36-.87-.22-.92-.07-.94v-15.16m0-15.17V1095m0-15.17v-30.32m0-15.17V1004m0-15.17V958.5m0-15.17V913m0-15.17V867.5m0-15.17V822m0-15.17V776.5m0-15.17V731m0-15.17V685.5m0-15.17V640m0-15.17V594.5m0-15.17V549m0-15.17V503.5m0-15.17V458m0-15.17V412.5m0-15.17V367m0-15.17V321.5m0-15.17V276m0-15.17V230.5m0-15.16v-30.34m0-15.16v-30.34m0-15.16v-15.17l.06-.94.22-.9.36-.88.5-.8.6-.7.72-.63.8-.5.87-.36.92-.22.94-.07h14.88" stroke="#343a40" stroke-width="3" fill="none"/><path d="M133.87-118.96c0 12.47-60.74 22.58-135.67 22.58-74.94 0-135.68-10.1-135.68-22.58V-299.6c0-12.46 60.74-22.57 135.68-22.57 74.93 0 135.67 10.1 135.67 22.58z" stroke="#343a40" stroke-width="3" fill-opacity="0"/><path d="M133.87-299.6c0 12.48-60.74 22.6-135.67 22.6-74.94 0-135.68-10.12-135.68-22.6" stroke="#343a40" stroke-width="3" fill="none"/><use xlink:href="#a" transform="matrix(1,0,0,1,-132.47802929437125,-272.0145585888707) translate(18.26851851851856 90.79166666666666)"/><use xlink:href="#b" transform="matrix(1,0,0,1,-132.47802929437125,-272.0145585888707) translate(97.80555555555556 90.79166666666666)"/><path d="M-173.23 13.53a6 6 0 0 1 6-6h330.85a6 6 0 0 1 6 6V176.2a6 6 0 0 1-6 6h-330.85a6 6 0 0 1-6-6z" stroke="#343a40" stroke-width="3" fill-opacity="0"/><use xlink:href="#c" transform="matrix(1,0,0,1,-161.22761613225072,19.526246555411703) translate(30.907407407407476 62.63888888888888)"/><use xlink:href="#d" transform="matrix(1,0,0,1,-161.22761613225072,19.526246555411703) translate(105.141975308642 62.63888888888888)"/><use xlink:href="#e" transform="matrix(1,0,0,1,-161.22761613225072,19.526246555411703) translate(236.2407407407407 62.63888888888888)"/><use xlink:href="#f" transform="matrix(1,0,0,1,-161.22761613225072,19.526246555411703) translate(81.85185185185189 99.9722222222222)"/><path d="M800.05 814.05c0 9.37-34.56 16.96-77.2 16.96s-77.2-7.58-77.2-16.95V678.32c0-9.37 34.56-16.97 77.2-16.97s77.2 7.6 77.2 16.97z" stroke="#343a40" stroke-width="3" fill="#fff"/><path d="M800.05 678.32c0 9.37-34.56 16.96-77.2 16.96s-77.2-7.6-77.2-16.96" stroke="#343a40" stroke-width="3" fill="none"/><use xlink:href="#g" transform="matrix(1,0,0,1,650.6468585035362,700.2852325028933) translate(16.407407407407426 50.6736111111111)"/><use xlink:href="#h" transform="matrix(1,0,0,1,650.6468585035362,700.2852325028933) translate(22.78703703703706 85.34027777777774)"/><path d="M-120.07 697.92c0 10.16-49.8 18.4-111.26 18.4-61.45 0-111.26-8.24-111.26-18.4V550.8c0-10.15 49.82-18.4 111.27-18.4 61.45 0 111.26 8.25 111.26 18.4z" stroke="#343a40" stroke-width="3" fill-opacity="0"/><path d="M-120.07 550.78c0 10.16-49.8 18.4-111.26 18.4-61.45 0-111.26-8.24-111.26-18.4" stroke="#343a40" stroke-width="3" fill="none"/><use xlink:href="#i" transform="matrix(1,0,0,1,-337.5899663298087,574.1756319944764) translate(13.907407407407462 56.85416666666666)"/><use xlink:href="#j" transform="matrix(1,0,0,1,-337.5899663298087,574.1756319944764) translate(46.361111111111136 96.85416666666664)"/><use xlink:href="#k" transform="matrix(1,0,0,1,-337.5899663298087,574.1756319944764) translate(116.63888888888889 96.85416666666664)"/><path d="M-1.8 185.2V244.4" stroke="#343a40" stroke-width="3" fill="none"/><path d="M-.33 185.23h-2.95v-1.54h2.95z" stroke="#343a40" stroke-width=".05" fill="#343a40"/><path d="M-1.8 260.17l-4.64-14.26h9.27z" stroke="#343a40" stroke-width="3" fill="#343a40"/><path d="M185.82 277.65a6 6 0 0 1 6-6h124.3a6 6 0 0 1 6 6v114.5a6 6 0 0 1-6 6h-124.3a6 6 0 0 1-6-6z" stroke="#000" stroke-opacity="0" stroke-width="3" fill-opacity="0"/><use xlink:href="#l" transform="matrix(1,0,0,1,190.82411065837238,276.6524616713156) translate(30.166666666666686 66.88541666666666)"/><path d="M-1.8-93.38v78.8" stroke="#343a40" stroke-width="3" fill="none"/><path d="M-1.8-94.88h1.47v1.54h-2.95v-1.57z" stroke="#343a40" stroke-width=".05" fill="#343a40"/><path d="M-1.8 1.17L-6.44-13.1h9.27z" stroke="#343a40" stroke-width="3" fill="#343a40"/><path d="M802.3 708.97L984.93 391" stroke="#343a40" stroke-width="3" fill="none"/><path d="M803.6 709.67l-2.05 3.56v-4.74z" stroke="#343a40" stroke-width=".05" fill="#343a40"/><path d="M992.8 377.32L989.7 392l-8.04-4.6z" stroke="#343a40" stroke-width="3" fill="#343a40"/><path d="M996.7 310.32a6 6 0 0 1 6-6h190.45a6 6 0 0 1 6 6v125.6a6 6 0 0 1-6 6H1002.7a6 6 0 0 1-6-6z" stroke="#343a40" stroke-width="3" fill="#fff"/><use xlink:href="#m" transform="matrix(1,0,0,1,1008.705101169485,316.3178414421663) translate(18.50000000000003 64.08333333333333)"/><use xlink:href="#n" transform="matrix(1,0,0,1,1008.705101169485,316.3178414421663) translate(145.68518518518516 64.08333333333333)"/><path d="M996.7 578.74a6 6 0 0 1 6-6h190.45a6 6 0 0 1 6 6v125.6a6 6 0 0 1-6 6H1002.7a6 6 0 0 1-6-6z" stroke="#343a40" stroke-width="3" fill="#fff"/><use xlink:href="#o" transform="matrix(1,0,0,1,1008.705101169485,584.7406462875858) translate(18.50000000000003 64.08333333333333)"/><use xlink:href="#p" transform="matrix(1,0,0,1,1008.705101169485,584.7406462875858) translate(145.68518518518516 64.08333333333333)"/><path d="M996.7 846.04a6 6 0 0 1 6-6h190.45a6 6 0 0 1 6 6v125.6a6 6 0 0 1-6 6H1002.7a6 6 0 0 1-6-6z" stroke="#343a40" stroke-width="3" fill="#fff"/><use xlink:href="#m" transform="matrix(1,0,0,1,1008.705101169485,852.0356242218902) translate(19.240740740740776 64.08333333333333)"/><use xlink:href="#q" transform="matrix(1,0,0,1,1008.705101169485,852.0356242218902) translate(146.42592592592592 64.08333333333333)"/><path d="M802.87 745.47l174.2-94.13" stroke="#343a40" stroke-width="3" fill="none"/><path d="M803.6 746.75l-2.05 1.1v-3.34l.66-.35z" stroke="#343a40" stroke-width=".05" fill="#343a40"/><path d="M990.93 643.85L980.6 654.7l-4.42-8.15z" stroke="#343a40" stroke-width="3" fill="#343a40"/><path d="M802.8 782.92l175.15 114.62" stroke="#343a40" stroke-width="3" fill="none"/><path d="M803.65 781.7l-1.62 2.47-.48-.3v-3.53z" stroke="#343a40" stroke-width=".05" fill="#343a40"/><path d="M991.14 906.17l-14.47-3.93 5.08-7.76z" stroke="#343a40" stroke-width="3" fill="#343a40"/><path d="M1307.64 226.86a6 6 0 0 1 6-6h164.7a6 6 0 0 1 6 6v96.27a6 6 0 0 1-6 6h-164.7a6 6 0 0 1-6-6z" fill="#fff"/><path d="M1341.1 220.86h27.45m13.72 0h27.45m13.73 0h27.45m13.73 0h13.72l.94.07.9.22.88.36.8.5.7.62.63.7.5.8.36.88.22.92.07.94v16.04m0 16.05v32.1m0 16.03v16.05l-.07.94-.22.9-.36.88-.5.8-.6.72-.72.6-.8.5-.87.37-.9.22-.95.07h-13.72m-13.73 0h-27.45m-13.73 0h-27.45m-13.72 0h-27.45m-13.73 0h-13.73l-.94-.07-.9-.22-.88-.36-.8-.5-.72-.6-.6-.72-.5-.8-.36-.88-.22-.9-.08-.95v-16.05m0-16.04v-32.1m0-16.04v-16.04l.08-.94.22-.9.36-.9.5-.8.6-.7.72-.62.8-.5.87-.35.9-.22.94-.07h13.73" stroke="#343a40" stroke-width="3" fill="none"/><use xlink:href="#r" transform="matrix(1,0,0,1,1319.6431239140582,232.85865001967397) translate(22.814814814814824 47.0173611111111)"/><path d="M1307.64 362.2a6 6 0 0 1 6-6h164.7a6 6 0 0 1 6 6v96.27a6 6 0 0 1-6 6h-164.7a6 6 0 0 1-6-6z" stroke="#343a40" stroke-width="3" fill="#fff"/><use xlink:href="#s" transform="matrix(1,0,0,1,1319.6431239140582,368.1978793534333) translate(-2.101851851851819 48.27777777777777)"/><path d="M1307.64 525.73a6 6 0 0 1 6-6h164.7a6 6 0 0 1 6 6V622a6 6 0 0 1-6 6h-164.7a6 6 0 0 1-6-6z" fill="#fff"/><path d="M1341.1 519.73h27.45m13.72 0h27.45m13.73 0h27.45m13.73 0h13.72l.94.08.9.23.88.36.8.48.7.6.63.73.5.8.36.88.22.9.07.95v16.05m0 16.04v32.1m0 16.04V622l-.07.94-.22.92-.36.87-.5.8-.6.72-.72.6-.8.5-.87.36-.9.23-.95.07h-13.72m-13.73 0h-27.45m-13.73 0h-27.45m-13.72 0h-27.45m-13.73 0h-13.73l-.94-.07-.9-.22-.88-.35-.8-.5-.72-.6-.6-.72-.5-.8-.36-.87-.22-.92-.08-.94v-16.04m0-16.05v-32.08m0-16.04v-16.05l.08-.94.22-.92.36-.87.5-.8.6-.7.72-.62.8-.5.87-.35.9-.22.94-.07h13.73" stroke="#343a40" stroke-width="3" fill="none"/><use xlink:href="#r" transform="matrix(1,0,0,1,1319.6431239140582,531.7327814652037) translate(22.814814814814824 47.0173611111111)"/><path d="M1307.64 661.07a6 6 0 0 1 6-6h164.7a6 6 0 0 1 6 6v96.27a6 6 0 0 1-6 6h-164.7a6 6 0 0 1-6-6z" stroke="#343a40" stroke-width="3" fill="#fff"/><use xlink:href="#s" transform="matrix(1,0,0,1,1319.6431239140582,667.0720107989629) translate(-2.101851851851819 48.27777777777777)"/><path d="M1307.64 822.35a6 6 0 0 1 6-6h164.7a6 6 0 0 1 6 6v96.27a6 6 0 0 1-6 6h-164.7a6 6 0 0 1-6-6z" fill="#fff"/><path d="M1341.1 816.35h27.45m13.72 0h27.45m13.73 0h27.45m13.73 0h13.72l.94.07.9.23.88.36.8.5.7.6.63.73.5.8.36.87.22.9.07.95v16.05m0 16.04v32.1m0 16.04v16.04l-.07.94-.22.92-.36.87-.5.8-.6.72-.72.6-.8.5-.87.36-.9.22-.95.07h-13.72m-13.73 0h-27.45m-13.73 0h-27.45m-13.72 0h-27.45m-13.73 0h-13.73l-.94-.07-.9-.22-.88-.36-.8-.5-.72-.6-.6-.72-.5-.8-.36-.87-.22-.92-.08-.94v-16.04m0-16.05v-32.1m0-16.03v-16.05l.08-.94.22-.9.36-.87.5-.8.6-.72.72-.6.8-.5.87-.36.9-.22.94-.07h13.73" stroke="#343a40" stroke-width="3" fill="none"/><use xlink:href="#t" transform="matrix(1,0,0,1,1319.6431239140582,828.3512590885359) translate(22.814814814814824 47.0173611111111)"/><path d="M1307.64 957.7a6 6 0 0 1 6-6h164.7a6 6 0 0 1 6 6v96.26a6 6 0 0 1-6 6h-164.7a6 6 0 0 1-6-6z" stroke="#343a40" stroke-width="3" fill="#fff"/><use xlink:href="#s" transform="matrix(1,0,0,1,1319.6431239140582,963.6904884222951) translate(-2.101851851851819 48.27777777777777)"/><path d="M1202.07 309.8l84.52-28.26" stroke="#343a40" stroke-width="3" fill="none"/><path d="M1202.58 311.2l-1.93.64v-1.58l-.1-1.12-.08-.35 1.17-.4z" stroke="#343a40" stroke-width=".05" fill="#343a40"/><path d="M1301.54 276.53l-12.06 8.93-2.94-8.8z" stroke="#343a40" stroke-width="3" fill="#343a40"/><path d="M1202.1 387.8l83.9 18.17" stroke="#343a40" stroke-width="3" fill="none"/><path d="M1202.46 386.36l-.62 2.88-1.2-.25v-3.03z" stroke="#343a40" stroke-width=".05" fill="#343a40"/><path d="M1301.4 409.3l-14.93 1.5 1.97-9.05z" stroke="#343a40" stroke-width="3" fill="#343a40"/><path d="M1201.95 633.6l86.3-49.48" stroke="#343a40" stroke-width="3" fill="none"/><path d="M1202.72 634.87l-2.07 1.2v-3.4l.6-.36z" stroke="#343a40" stroke-width=".05" fill="#343a40"/><path d="M1301.93 576.28l-10.07 11.12-4.6-8.04z" stroke="#343a40" stroke-width="3" fill="#343a40"/><path d="M1202.1 683.55l84.02 20.72" stroke="#343a40" stroke-width="3" fill="none"/><path d="M1202.5 682.13l-.7 2.86-1.15-.3v-3.03z" stroke="#343a40" stroke-width=".05" fill="#343a40"/><path d="M1301.43 708.04l-14.96 1.1 2.22-9z" stroke="#343a40" stroke-width="3" fill="#343a40"/><path d="M1202.14 860.15l83.48 8.3" stroke="#343a40" stroke-width="3" fill="none"/><path d="M1202.33 858.68l-.3 2.94-1.38-.14v-2.96z" stroke="#343a40" stroke-width=".05" fill="#343a40"/><path d="M1301.3 870l-14.64 3.2.92-9.22z" stroke="#343a40" stroke-width="3" fill="#343a40"/><path d="M1201.95 946.9l86.24 48.78" stroke="#343a40" stroke-width="3" fill="none"/><path d="M1202.7 945.65l-1.44 2.57-.6-.35v-3.4z" stroke="#343a40" stroke-width=".05" fill="#343a40"/><path d="M1301.92 1003.44l-14.7-3 4.56-8.06z" stroke="#343a40" stroke-width="3" fill="#343a40"/><path d="M681.3 142.5a6 6 0 0 1 6-6h375.5a6 6 0 0 1 6 6v122.23a6 6 0 0 1-6 6H687.3a6 6 0 0 1-6-6z" stroke="#000" stroke-opacity="0" stroke-width="3" fill="#fff"/><use xlink:href="#u" transform="matrix(1,0,0,1,686.2922956558439,141.51450134407722) translate(16.506172839506235 67.85763888888889)"/><use xlink:href="#v" transform="matrix(1,0,0,1,686.2922956558439,141.51450134407722) translate(59.71604938271609 67.85763888888889)"/><use xlink:href="#w" transform="matrix(1,0,0,1,686.2922956558439,141.51450134407722) translate(125.13580246913581 67.85763888888889)"/><use xlink:href="#x" transform="matrix(1,0,0,1,686.2922956558439,141.51450134407722) translate(216.65432098765427 67.85763888888889)"/><path d="M1558.15 355.92a6 6 0 0 1 6-6h131.38a6 6 0 0 1 6 6v114.83c-23.95-20.18-38.86-20.18-47.9-20.18-14.33 0-33.4 20.18-47.73 20.18-8.9 0-23.95 0-47.75-20.18z" stroke="#343a40" stroke-width="3" fill="#3a414a"/><use xlink:href="#y" transform="matrix(1,0,0,1,1563.154319576773,354.9166017570295) translate(27.799382716049394 51.5486111111111)"/><path d="M1558.15 654.8a6 6 0 0 1 6-6h131.38a6 6 0 0 1 6 6v114.83c-23.95-20.18-38.86-20.18-47.9-20.18-14.33 0-33.4 20.17-47.73 20.17-8.9 0-23.95 0-47.75-20.17z" stroke="#343a40" stroke-width="3" fill="#3a414a"/><use xlink:href="#z" transform="matrix(1,0,0,1,1563.154319576773,653.7907332025591) translate(27.799382716049394 51.5486111111111)"/><path d="M1558.15 952.05a6 6 0 0 1 6-6h131.38a6 6 0 0 1 6 6v114.83c-23.95-20.18-38.86-20.18-47.9-20.18-14.33 0-33.4 20.18-47.73 20.18-8.9 0-23.95 0-47.75-20.18z" stroke="#343a40" stroke-width="3" fill="#3a414a"/><use xlink:href="#z" transform="matrix(1,0,0,1,1563.154319576773,951.0458844829321) translate(27.799382716049394 51.5486111111111)"/><path d="M1487.35 709.2h48.68" stroke="#343a40" stroke-width="3" fill="none"/><path d="M1487.4 710.68h-1.55v-2.95h1.54z" stroke="#343a40" stroke-width=".05" fill="#343a40"/><path d="M1551.8 709.2l-14.27 4.64v-9.27z" stroke="#343a40" stroke-width="3" fill="#343a40"/><path d="M1487.35 1005.83h33.6a.32.32 0 0 1 .3.3.32.32 0 0 0 .32.33h14.46" stroke="#343a40" stroke-width="3" fill="none"/><path d="M1487.4 1007.3h-1.55v-2.95h1.54z" stroke="#343a40" stroke-width=".05" fill="#343a40"/><path d="M1551.8 1006.46l-14.27 4.64v-9.27z" stroke="#343a40" stroke-width="3" fill="#343a40"/><path d="M1487.35 410.33h48.68" stroke="#343a40" stroke-width="3" fill="none"/><path d="M1487.4 411.8h-1.55v-2.94h1.54z" stroke="#343a40" stroke-width=".05" fill="#343a40"/><path d="M1551.8 410.33l-14.27 4.64v-9.27z" stroke="#343a40" stroke-width="3" fill="#343a40"/><path d="M-331.74 258.78a6 6 0 0 1 6-6h124.3a6 6 0 0 1 6 6v114.5a6 6 0 0 1-6 6h-124.3a6 6 0 0 1-6-6z" stroke="#000" stroke-opacity="0" stroke-width="3" fill-opacity="0"/><use xlink:href="#A" transform="matrix(1,0,0,1,-326.7389460974876,257.7782846273521) translate(30.166666666666686 66.88541666666666)"/><path d="M60.65 328.98c0 34.5-27.96 62.46-62.45 62.46-34.5 0-62.46-27.96-62.46-62.46s27.96-62.45 62.46-62.45 62.45 27.96 62.45 62.45z" stroke="#343a40" stroke-width="3"/><use xlink:href="#B" transform="matrix(1,0,0,1,-59.25820698652825,271.5292484484515) translate(11.255000000000011 44.63541666666666)"/><use xlink:href="#C" transform="matrix(1,0,0,1,-59.25820698652825,271.5292484484515) translate(25.190185185185193 84.63541666666664)"/><path d="M336.16 697.92c0 10.16-49.8 18.4-111.26 18.4-61.45 0-111.26-8.24-111.26-18.4V550.8c0-10.15 49.8-18.4 111.26-18.4 61.45 0 111.26 8.25 111.26 18.4z" stroke="#343a40" stroke-width="3" fill-opacity="0"/><path d="M336.16 550.78c0 10.16-49.8 18.4-111.26 18.4-61.45 0-111.26-8.24-111.26-18.4" stroke="#343a40" stroke-width="3" fill="none"/><use xlink:href="#D" transform="matrix(1,0,0,1,118.63993997779443,574.1756319944764) translate(41.777777777777814 56.85416666666666)"/><use xlink:href="#E" transform="matrix(1,0,0,1,118.63993997779443,574.1756319944764) translate(49.13888888888892 96.85416666666664)"/><path d="M-67.26 328.98h-151.7a6 6 0 0 0-6 6V510.4" stroke="#343a40" stroke-width="3" fill="none"/><path d="M-65.76 328.97l.04 1.5h-1.58v-2.96h1.6z" stroke="#343a40" stroke-width=".05" fill="#343a40"/><path d="M-224.97 526.17l-4.64-14.26h9.26z" stroke="#343a40" stroke-width="3" fill="#343a40"/><path d="M63.65 328.98h143.98a6 6 0 0 1 6 6V510.5" stroke="#343a40" stroke-width="3" fill="none"/><path d="M63.7 330.46h-1.6l.05-1.46-.03-1.5h1.57z" stroke="#343a40" stroke-width=".05" fill="#343a40"/><path d="M213.63 526.27L209 512h9.27z" stroke="#343a40" stroke-width="3" fill="#343a40"/><path d="M77.52 792.64a6 6 0 0 1 6-6h282.76a6 6 0 0 1 6 6V968a6 6 0 0 1-6 6H83.52a6 6 0 0 1-6-6z" stroke="#343a40" stroke-width="3" fill-opacity="0"/><use xlink:href="#F" transform="matrix(1,0,0,1,89.51966725420968,798.6383192131885) translate(7.907407407407447 88.16666666666666)"/><use xlink:href="#G" transform="matrix(1,0,0,1,89.51966725420968,798.6383192131885) translate(131.7962962962963 88.16666666666666)"/><path d="M77.52 1055.76a6 6 0 0 1 6-6h282.76a6 6 0 0 1 6 6v162.03a6 6 0 0 1-6 6H83.52a6 6 0 0 1-6-6z" stroke="#343a40" stroke-width="3" fill-opacity="0"/><use xlink:href="#H" transform="matrix(1,0,0,1,89.51966725420968,1061.760781607188) translate(14.481481481481524 40.82291666666666)"/><use xlink:href="#I" transform="matrix(1,0,0,1,89.51966725420968,1061.760781607188) translate(114.29629629629629 40.82291666666666)"/><use xlink:href="#J" transform="matrix(1,0,0,1,89.51966725420968,1061.760781607188) translate(214.01851851851848 40.82291666666666)"/><use xlink:href="#K" transform="matrix(1,0,0,1,89.51966725420968,1061.760781607188) translate(40.26851851851856 80.82291666666664)"/><use xlink:href="#L" transform="matrix(1,0,0,1,89.51966725420968,1061.760781607188) translate(151.19444444444446 80.82291666666664)"/><use xlink:href="#M" transform="matrix(1,0,0,1,89.51966725420968,1061.760781607188) translate(65.26851851851855 120.82291666666663)"/><path d="M224.9 719.32v45.2" stroke="#343a40" stroke-width="3" fill="none"/><path d="M224.9 717.82l1.48-.03v1.56h-2.95v-1.57z" stroke="#343a40" stroke-width=".05" fill="#343a40"/><path d="M224.9 780.28l-4.64-14.26h9.28z" stroke="#343a40" stroke-width="3" fill="#343a40"/><path d="M224.9 977v50.64" stroke="#343a40" stroke-width="3" fill="none"/><path d="M226.38 977.04h-2.95v-1.54h2.95z" stroke="#343a40" stroke-width=".05" fill="#343a40"/><path d="M224.9 1043.4l-4.64-14.26h9.28z" stroke="#343a40" stroke-width="3" fill="#343a40"/><path d="M375.28 1136.77h16.85m16.85 0h33.7m16.85 0h16.85l.94-.07.92-.22.87-.36.8-.5.73-.6.6-.72.5-.8.36-.87.2-.92.08-.93v-14.92m0-14.92v-29.84m0-14.93v-29.84m0-14.92v-29.83m0-14.92V936.8m0-14.9v-29.86m0-14.9v-29.86m0-14.92v-29.84m0-14.92v-29.84m0-14.92V713m0-14.92v-29.84m0-14.92V638.4l.08-.94.22-.92.36-.87.5-.8.6-.72.72-.6.8-.5.87-.36.92-.23.93-.07h16.85m16.85 0h33.7m16.86 0h16.85" stroke="#343a40" stroke-width="3" fill="none"/><path d="M375.32 1138.25h-1.54v-2.95h1.54zM591 633.87h-1.55v-2.95h1.53z" stroke="#343a40" stroke-width=".05" fill="#343a40"/><path d="M224.9 1226.8v50.62" stroke="#343a40" stroke-width="3" fill="none"/><path d="M226.38 1226.82h-2.95v-1.53h2.95z" stroke="#343a40" stroke-width=".05" fill="#343a40"/><path d="M224.9 1293.2l-4.64-14.28h9.28z" stroke="#343a40" stroke-width="3" fill="#343a40"/><path d="M68.08 1305.54a6 6 0 0 1 6-6h301.64a6 6 0 0 1 6 6v134a6 6 0 0 1-6 6H74.08a6 6 0 0 1-6-6z" fill-opacity="0"/><path d="M102.8 1299.54h28.74m14.36 0h28.73m14.36 0h28.72m14.36 0h28.73m14.37 0h28.73m14.36 0H347m14.35 0h14.37l.93.08.92.22.87.36.8.5.72.6.6.72.5.8.36.87.22.9.08.94v14.9m0 14.88v29.78m0 14.9v29.77m0 14.88v14.9l-.08.93-.22.92-.36.87-.5.8-.6.72-.72.6-.8.5-.87.35-.92.22-.93.07h-14.37m-14.36 0h-28.74m-14.36 0h-28.73m-14.36 0H232.1m-14.36 0H189m-14.37 0H145.9m-14.36 0H102.8m-14.35 0H74.08l-.93-.07-.92-.22-.87-.36-.8-.5-.72-.6-.6-.73-.5-.8-.36-.87-.22-.92-.08-.94v-14.88m0-14.9V1380m0-14.9v-29.78m0-14.9v-14.88l.08-.93.22-.9.36-.88.5-.8.6-.72.72-.6.8-.5.87-.36.92-.22.93-.08h14.37" stroke="#343a40" stroke-width="3" fill="none"/><g><use xlink:href="#N" transform="matrix(1,0,0,1,80.08531265110273,1311.5441315974736) translate(12.685185185185247 30.479166666666657)"/><use xlink:href="#O" transform="matrix(1,0,0,1,80.08531265110273,1311.5441315974736) translate(177.3148148148148 30.479166666666657)"/><use xlink:href="#P" transform="matrix(1,0,0,1,80.08531265110273,1311.5441315974736) translate(214.35185185185182 30.479166666666657)"/><use xlink:href="#Q" transform="matrix(1,0,0,1,80.08531265110273,1311.5441315974736) translate(75.64814814814818 70.47916666666664)"/><use xlink:href="#R" transform="matrix(1,0,0,1,80.08531265110273,1311.5441315974736) translate(192.12962962962962 70.47916666666664)"/><use xlink:href="#S" transform="matrix(1,0,0,1,80.08531265110273,1311.5441315974736) translate(19.25925925925931 110.47916666666663)"/></g><path d="M224.9 1448.54v67.88" stroke="#343a40" stroke-width="3" fill="none"/><path d="M226.38 1448.58h-2.95v-1.54h2.95z" stroke="#343a40" stroke-width=".05" fill="#343a40"/><path d="M224.9 1532.2l-4.64-14.28h9.28z" stroke="#343a40" stroke-width="3" fill="#343a40"/><path d="M60.65 1544.55a6 6 0 0 1 6-6h316.5a6 6 0 0 1 6 6v175.36a6 6 0 0 1-6 6H66.65a6 6 0 0 1-6-6z" stroke="#343a40" stroke-width="3" fill-opacity="0"/><g><use xlink:href="#T" transform="matrix(1,0,0,1,72.65095804799591,1550.544708610974) translate(35.09259259259265 47.16666666666666)"/><use xlink:href="#U" transform="matrix(1,0,0,1,72.65095804799591,1550.544708610974) translate(111.01851851851855 47.16666666666666)"/><use xlink:href="#V" transform="matrix(1,0,0,1,72.65095804799591,1550.544708610974) translate(210.83333333333331 47.16666666666666)"/><use xlink:href="#W" transform="matrix(1,0,0,1,72.65095804799591,1550.544708610974) translate(110.83333333333336 87.16666666666664)"/><use xlink:href="#S" transform="matrix(1,0,0,1,72.65095804799591,1550.544708610974) translate(26.75925925925931 127.16666666666663)"/></g><path d="M57.65 1632.23H-18.3" stroke="#343a40" stroke-width="3" fill="none"/><path d="M59.15 1633.7H57.6v-2.95h1.55z" stroke="#343a40" stroke-width=".05" fill="#343a40"/><path d="M-34.06 1632.23l14.27-4.64v9.26z" stroke="#343a40" stroke-width="3" fill="#343a40"/><path d="M-422.25 1544.55a6 6 0 0 1 6-6H-46.4a6 6 0 0 1 6 6v175.36a6 6 0 0 1-6 6h-369.85a6 6 0 0 1-6-6z" fill-opacity="0"/><path d="M-385.43 1538.55h30.82m15.4 0h30.82m15.4 0h30.83m15.4 0h30.83m15.4 0h30.83m15.42 0h30.82m15.4 0h30.83m15.4 0h15.42l.93.07.9.22.88.36.82.5.7.6.62.72.5.8.36.87.22.9.07.95v14.6m0 14.62V1603m0 14.6v29.24m0 14.6v29.24m0 14.62v14.6l-.08.95-.22.9-.36.88-.5.8-.6.72-.72.6-.8.5-.88.37-.9.22-.95.07h-15.42m-15.4 0h-30.83m-15.4 0h-30.83m-15.4 0h-30.83m-15.42 0h-30.82m-15.4 0h-30.83m-15.4 0h-30.83m-15.4 0h-30.83m-15.4 0h-15.42l-.94-.07-.9-.2-.87-.38-.8-.5-.72-.6-.6-.72-.5-.8-.35-.87-.23-.9-.07-.95v-14.6m0-14.62v-29.23m0-14.6v-29.24m0-14.6v-29.23m0-14.6v-14.63l.07-.93.22-.9.36-.88.5-.8.6-.72.72-.6.8-.5.88-.36.9-.22.95-.07h15.4" stroke="#343a40" stroke-width="3" fill="none"/><g><use xlink:href="#N" transform="matrix(1,0,0,1,-410.24916914379037,1550.544708610974) translate(1.4074074074075043 47.16666666666666)"/><use xlink:href="#O" transform="matrix(1,0,0,1,-410.24916914379037,1550.544708610974) translate(166.03703703703707 47.16666666666666)"/><use xlink:href="#X" transform="matrix(1,0,0,1,-410.24916914379037,1550.544708610974) translate(203.07407407407408 47.16666666666666)"/><use xlink:href="#W" transform="matrix(1,0,0,1,-410.24916914379037,1550.544708610974) translate(273.25925925925924 47.16666666666666)"/><use xlink:href="#U" transform="matrix(1,0,0,1,-410.24916914379037,1550.544708610974) translate(19.8333333333334 87.16666666666664)"/><use xlink:href="#Y" transform="matrix(1,0,0,1,-410.24916914379037,1550.544708610974) translate(119.64814814814817 87.16666666666664)"/><use xlink:href="#Z" transform="matrix(1,0,0,1,-410.24916914379037,1550.544708610974) translate(165.94444444444443 87.16666666666664)"/><use xlink:href="#aa" transform="matrix(1,0,0,1,-410.24916914379037,1550.544708610974) translate(284.46296296296293 87.16666666666664)"/><use xlink:href="#ab" transform="matrix(1,0,0,1,-410.24916914379037,1550.544708610974) translate(146.5925925925926 127.16666666666663)"/></g><path d="M-231.33 719.32v797.1" stroke="#343a40" stroke-width="3" fill="none"/><path d="M-231.33 717.82l1.48-.03v1.56h-2.95v-1.57z" stroke="#343a40" stroke-width=".05" fill="#343a40"/><path d="M-231.33 1532.2l-4.63-14.28h9.27z" stroke="#343a40" stroke-width="3" fill="#343a40"/><defs><path fill="#3a414a" d="M30-248c118-7 216 8 213 122C240-48 200 0 122 0H30v-248zM63-27c89 8 146-16 146-99s-60-101-146-95v194" id="ac"/><path fill="#3a414a" d="M141-36C126-15 110 5 73 4 37 3 15-17 15-53c-1-64 63-63 125-63 3-35-9-54-41-54-24 1-41 7-42 31l-33-3c5-37 33-52 76-52 45 0 72 20 72 64v82c-1 20 7 32 28 27v20c-31 9-61-2-59-35zM48-53c0 20 12 33 32 33 41-3 63-29 60-74-43 2-92-5-92 41" id="ad"/><path fill="#3a414a" d="M59-47c-2 24 18 29 38 22v24C64 9 27 4 27-40v-127H5v-23h24l9-43h21v43h35v23H59v120" id="ae"/><g id="a"><use transform="matrix(0.09259259259259256,0,0,0.09259259259259256,0,0)" xlink:href="#ac"/><use transform="matrix(0.09259259259259256,0,0,0.09259259259259256,23.981481481481474,0)" xlink:href="#ad"/><use transform="matrix(0.09259259259259256,0,0,0.09259259259259256,42.499999999999986,0)" xlink:href="#ae"/><use transform="matrix(0.09259259259259256,0,0,0.09259259259259256,51.75925925925924,0)" xlink:href="#ad"/></g><path fill="#3a414a" d="M212-179c-10-28-35-45-73-45-59 0-87 40-87 99 0 60 29 101 89 101 43 0 62-24 78-52l27 14C228-24 195 4 139 4 59 4 22-46 18-125c-6-104 99-153 187-111 19 9 31 26 39 46" id="af"/><path fill="#3a414a" d="M100-194c62-1 85 37 85 99 1 63-27 99-86 99S16-35 15-95c0-66 28-99 85-99zM99-20c44 1 53-31 53-75 0-43-8-75-51-75s-53 32-53 75 10 74 51 75" id="ag"/><path fill="#3a414a" d="M24 0v-261h32V0H24" id="ah"/><path fill="#3a414a" d="M100-194c63 0 86 42 84 106H49c0 40 14 67 53 68 26 1 43-12 49-29l28 8c-11 28-37 45-77 45C44 4 14-33 15-96c1-61 26-98 85-98zm52 81c6-60-76-77-97-28-3 7-6 17-6 28h103" id="ai"/><path fill="#3a414a" d="M96-169c-40 0-48 33-48 73s9 75 48 75c24 0 41-14 43-38l32 2c-6 37-31 61-74 61-59 0-76-41-82-99-10-93 101-131 147-64 4 7 5 14 7 22l-32 3c-4-21-16-35-41-35" id="aj"/><path fill="#3a414a" d="M24-231v-30h32v30H24zM24 0v-190h32V0H24" id="ak"/><path fill="#3a414a" d="M117-194c89-4 53 116 60 194h-32v-121c0-31-8-49-39-48C34-167 62-67 57 0H25l-1-190h30c1 10-1 24 2 32 11-22 29-35 61-36" id="al"/><g id="b"><use transform="matrix(0.09259259259259256,0,0,0.09259259259259256,0,0)" xlink:href="#af"/><use transform="matrix(0.09259259259259256,0,0,0.09259259259259256,23.981481481481474,0)" xlink:href="#ag"/><use transform="matrix(0.09259259259259256,0,0,0.09259259259259256,42.499999999999986,0)" xlink:href="#ah"/><use transform="matrix(0.09259259259259256,0,0,0.09259259259259256,49.814814814814795,0)" xlink:href="#ah"/><use transform="matrix(0.09259259259259256,0,0,0.09259259259259256,57.12962962962961,0)" xlink:href="#ai"/><use transform="matrix(0.09259259259259256,0,0,0.09259259259259256,75.64814814814812,0)" xlink:href="#aj"/><use transform="matrix(0.09259259259259256,0,0,0.09259259259259256,92.31481481481478,0)" xlink:href="#ae"/><use transform="matrix(0.09259259259259256,0,0,0.09259259259259256,101.57407407407403,0)" xlink:href="#ak"/><use transform="matrix(0.09259259259259256,0,0,0.09259259259259256,108.88888888888886,0)" xlink:href="#ag"/><use transform="matrix(0.09259259259259256,0,0,0.09259259259259256,127.40740740740736,0)" xlink:href="#al"/></g><path d="M30-248c118-7 216 8 213 122C240-48 200 0 122 0H30v-248zM63-27c89 8 146-16 146-99s-60-101-146-95v194" id="am"/><path d="M141-36C126-15 110 5 73 4 37 3 15-17 15-53c-1-64 63-63 125-63 3-35-9-54-41-54-24 1-41 7-42 31l-33-3c5-37 33-52 76-52 45 0 72 20 72 64v82c-1 20 7 32 28 27v20c-31 9-61-2-59-35zM48-53c0 20 12 33 32 33 41-3 63-29 60-74-43 2-92-5-92 41" id="an"/><path d="M59-47c-2 24 18 29 38 22v24C64 9 27 4 27-40v-127H5v-23h24l9-43h21v43h35v23H59v120" id="ao"/><g id="c"><use transform="matrix(0.0864197530864197,0,0,0.0864197530864197,0,0)" xlink:href="#am"/><use transform="matrix(0.0864197530864197,0,0,0.0864197530864197,22.382716049382704,0)" xlink:href="#an"/><use transform="matrix(0.0864197530864197,0,0,0.0864197530864197,39.66666666666664,0)" xlink:href="#ao"/><use transform="matrix(0.0864197530864197,0,0,0.0864197530864197,48.30864197530862,0)" xlink:href="#an"/></g><path d="M212-179c-10-28-35-45-73-45-59 0-87 40-87 99 0 60 29 101 89 101 43 0 62-24 78-52l27 14C228-24 195 4 139 4 59 4 22-46 18-125c-6-104 99-153 187-111 19 9 31 26 39 46" id="ap"/><path d="M24 0v-261h32V0H24" id="aq"/><path d="M100-194c63 0 86 42 84 106H49c0 40 14 67 53 68 26 1 43-12 49-29l28 8c-11 28-37 45-77 45C44 4 14-33 15-96c1-61 26-98 85-98zm52 81c6-60-76-77-97-28-3 7-6 17-6 28h103" id="ar"/><path d="M117-194c89-4 53 116 60 194h-32v-121c0-31-8-49-39-48C34-167 62-67 57 0H25l-1-190h30c1 10-1 24 2 32 11-22 29-35 61-36" id="as"/><path d="M24-231v-30h32v30H24zM24 0v-190h32V0H24" id="at"/><path d="M177-190C167-65 218 103 67 71c-23-6-38-20-44-43l32-5c15 47 100 32 89-28v-30C133-14 115 1 83 1 29 1 15-40 15-95c0-56 16-97 71-98 29-1 48 16 59 35 1-10 0-23 2-32h30zM94-22c36 0 50-32 50-73 0-42-14-75-50-75-39 0-46 34-46 75s6 73 46 73" id="au"/><g id="d"><use transform="matrix(0.0864197530864197,0,0,0.0864197530864197,0,0)" xlink:href="#ap"/><use transform="matrix(0.0864197530864197,0,0,0.0864197530864197,22.382716049382704,0)" xlink:href="#aq"/><use transform="matrix(0.0864197530864197,0,0,0.0864197530864197,29.209876543209862,0)" xlink:href="#ar"/><use transform="matrix(0.0864197530864197,0,0,0.0864197530864197,46.493827160493815,0)" xlink:href="#an"/><use transform="matrix(0.0864197530864197,0,0,0.0864197530864197,63.77777777777775,0)" xlink:href="#as"/><use transform="matrix(0.0864197530864197,0,0,0.0864197530864197,81.06172839506169,0)" xlink:href="#at"/><use transform="matrix(0.0864197530864197,0,0,0.0864197530864197,87.88888888888884,0)" xlink:href="#as"/><use transform="matrix(0.0864197530864197,0,0,0.0864197530864197,105.17283950617278,0)" xlink:href="#au"/></g><path d="M85-194c31 0 48 13 60 33l-1-100h32l1 261h-30c-2-10 0-23-3-31C134-8 116 4 85 4 32 4 16-35 15-94c0-66 23-100 70-100zm9 24c-40 0-46 34-46 75 0 40 6 74 45 74 42 0 51-32 51-76 0-42-9-74-50-73" id="av"/><g id="e"><use transform="matrix(0.0864197530864197,0,0,0.0864197530864197,0,0)" xlink:href="#an"/><use transform="matrix(0.0864197530864197,0,0,0.0864197530864197,17.283950617283942,0)" xlink:href="#as"/><use transform="matrix(0.0864197530864197,0,0,0.0864197530864197,34.567901234567884,0)" xlink:href="#av"/></g><path d="M30 0v-248h187v28H63v79h144v27H63v87h162V0H30" id="aw"/><path d="M141 0L90-78 38 0H4l68-98-65-92h35l48 74 47-74h35l-64 92 68 98h-35" id="ax"/><path d="M115-194c55 1 70 41 70 98S169 2 115 4C84 4 66-9 55-30l1 105H24l-1-265h31l2 30c10-21 28-34 59-34zm-8 174c40 0 45-34 45-75s-6-73-45-74c-42 0-51 32-51 76 0 43 10 73 51 73" id="ay"/><path d="M100-194c62-1 85 37 85 99 1 63-27 99-86 99S16-35 15-95c0-66 28-99 85-99zM99-20c44 1 53-31 53-75 0-43-8-75-51-75s-53 32-53 75 10 74 51 75" id="az"/><path d="M114-163C36-179 61-72 57 0H25l-1-190h30c1 12-1 29 2 39 6-27 23-49 58-41v29" id="aA"/><g id="f"><use transform="matrix(0.0864197530864197,0,0,0.0864197530864197,0,0)" xlink:href="#aw"/><use transform="matrix(0.0864197530864197,0,0,0.0864197530864197,20.74074074074073,0)" xlink:href="#ax"/><use transform="matrix(0.0864197530864197,0,0,0.0864197530864197,36.296296296296276,0)" xlink:href="#ay"/><use transform="matrix(0.0864197530864197,0,0,0.0864197530864197,53.58024691358022,0)" xlink:href="#aq"/><use transform="matrix(0.0864197530864197,0,0,0.0864197530864197,60.407407407407376,0)" xlink:href="#az"/><use transform="matrix(0.0864197530864197,0,0,0.0864197530864197,77.69135802469131,0)" xlink:href="#aA"/><use transform="matrix(0.0864197530864197,0,0,0.0864197530864197,87.97530864197526,0)" xlink:href="#an"/><use transform="matrix(0.0864197530864197,0,0,0.0864197530864197,105.25925925925921,0)" xlink:href="#ao"/><use transform="matrix(0.0864197530864197,0,0,0.0864197530864197,113.9012345679012,0)" xlink:href="#at"/><use transform="matrix(0.0864197530864197,0,0,0.0864197530864197,120.72839506172834,0)" xlink:href="#az"/><use transform="matrix(0.0864197530864197,0,0,0.0864197530864197,138.01234567901227,0)" xlink:href="#as"/></g><path fill="#3a414a" d="M30 0v-248h33v221h125V0H30" id="aB"/><path fill="#3a414a" d="M114-163C36-179 61-72 57 0H25l-1-190h30c1 12-1 29 2 39 6-27 23-49 58-41v29" id="aC"/><path fill="#3a414a" d="M177-190C167-65 218 103 67 71c-23-6-38-20-44-43l32-5c15 47 100 32 89-28v-30C133-14 115 1 83 1 29 1 15-40 15-95c0-56 16-97 71-98 29-1 48 16 59 35 1-10 0-23 2-32h30zM94-22c36 0 50-32 50-73 0-42-14-75-50-75-39 0-46 34-46 75s6 73 46 73" id="aD"/><g id="g"><use transform="matrix(0.08024691358024688,0,0,0.08024691358024688,0,0)" xlink:href="#aB"/><use transform="matrix(0.08024691358024688,0,0,0.08024691358024688,16.049382716049376,0)" xlink:href="#ai"/><use transform="matrix(0.08024691358024688,0,0,0.08024691358024688,32.09876543209875,0)" xlink:href="#ad"/><use transform="matrix(0.08024691358024688,0,0,0.08024691358024688,48.14814814814812,0)" xlink:href="#aC"/><use transform="matrix(0.08024691358024688,0,0,0.08024691358024688,57.69753086419751,0)" xlink:href="#al"/><use transform="matrix(0.08024691358024688,0,0,0.08024691358024688,73.74691358024688,0)" xlink:href="#ak"/><use transform="matrix(0.08024691358024688,0,0,0.08024691358024688,80.08641975308639,0)" xlink:href="#al"/><use transform="matrix(0.08024691358024688,0,0,0.08024691358024688,96.13580246913577,0)" xlink:href="#aD"/></g><path fill="#3a414a" d="M135-143c-3-34-86-38-87 0 15 53 115 12 119 90S17 21 10-45l28-5c4 36 97 45 98 0-10-56-113-15-118-90-4-57 82-63 122-42 12 7 21 19 24 35" id="aE"/><g id="h"><use transform="matrix(0.08024691358024688,0,0,0.08024691358024688,0,0)" xlink:href="#ac"/><use transform="matrix(0.08024691358024688,0,0,0.08024691358024688,20.783950617283942,0)" xlink:href="#ad"/><use transform="matrix(0.08024691358024688,0,0,0.08024691358024688,36.833333333333314,0)" xlink:href="#ae"/><use transform="matrix(0.08024691358024688,0,0,0.08024691358024688,44.858024691358004,0)" xlink:href="#ad"/><use transform="matrix(0.08024691358024688,0,0,0.08024691358024688,60.907407407407376,0)" xlink:href="#aE"/><use transform="matrix(0.08024691358024688,0,0,0.08024691358024688,75.35185185185182,0)" xlink:href="#ai"/><use transform="matrix(0.08024691358024688,0,0,0.08024691358024688,91.4012345679012,0)" xlink:href="#ae"/></g><path fill="#3a414a" d="M33 0v-248h34V0H33" id="aF"/><path fill="#3a414a" d="M85-194c31 0 48 13 60 33l-1-100h32l1 261h-30c-2-10 0-23-3-31C134-8 116 4 85 4 32 4 16-35 15-94c0-66 23-100 70-100zm9 24c-40 0-46 34-46 75 0 40 6 74 45 74 42 0 51-32 51-76 0-42-9-74-50-73" id="aG"/><path fill="#3a414a" d="M115-194c55 1 70 41 70 98S169 2 115 4C84 4 66-9 55-30l1 105H24l-1-265h31l2 30c10-21 28-34 59-34zm-8 174c40 0 45-34 45-75s-6-73-45-74c-42 0-51 32-51 76 0 43 10 73 51 73" id="aH"/><g id="i"><use transform="matrix(0.09259259259259256,0,0,0.09259259259259256,0,0)" xlink:href="#aF"/><use transform="matrix(0.09259259259259256,0,0,0.09259259259259256,9.259259259259256,0)" xlink:href="#al"/><use transform="matrix(0.09259259259259256,0,0,0.09259259259259256,27.777777777777768,0)" xlink:href="#aG"/><use transform="matrix(0.09259259259259256,0,0,0.09259259259259256,46.296296296296276,0)" xlink:href="#ai"/><use transform="matrix(0.09259259259259256,0,0,0.09259259259259256,64.81481481481478,0)" xlink:href="#aH"/><use transform="matrix(0.09259259259259256,0,0,0.09259259259259256,83.33333333333329,0)" xlink:href="#ai"/><use transform="matrix(0.09259259259259256,0,0,0.09259259259259256,101.85185185185179,0)" xlink:href="#al"/><use transform="matrix(0.09259259259259256,0,0,0.09259259259259256,120.37037037037028,0)" xlink:href="#aG"/><use transform="matrix(0.09259259259259256,0,0,0.09259259259259256,138.8888888888888,0)" xlink:href="#ai"/><use transform="matrix(0.09259259259259256,0,0,0.09259259259259256,157.4074074074073,0)" xlink:href="#al"/><use transform="matrix(0.09259259259259256,0,0,0.09259259259259256,175.9259259259258,0)" xlink:href="#ae"/></g><path fill="#3a414a" d="M127-220V0H93v-220H8v-28h204v28h-85" id="aI"/><g id="j"><use transform="matrix(0.09259259259259256,0,0,0.09259259259259256,0,0)" xlink:href="#aI"/><use transform="matrix(0.09259259259259256,0,0,0.09259259259259256,16.57407407407407,0)" xlink:href="#ai"/><use transform="matrix(0.09259259259259256,0,0,0.09259259259259256,35.09259259259258,0)" xlink:href="#aE"/><use transform="matrix(0.09259259259259256,0,0,0.09259259259259256,51.75925925925924,0)" xlink:href="#ae"/></g><path fill="#3a414a" d="M185-189c-5-48-123-54-124 2 14 75 158 14 163 119 3 78-121 87-175 55-17-10-28-26-33-46l33-7c5 56 141 63 141-1 0-78-155-14-162-118-5-82 145-84 179-34 5 7 8 16 11 25" id="aJ"/><g id="k"><use transform="matrix(0.09259259259259256,0,0,0.09259259259259256,0,0)" xlink:href="#aJ"/><use transform="matrix(0.09259259259259256,0,0,0.09259259259259256,22.222222222222214,0)" xlink:href="#ai"/><use transform="matrix(0.09259259259259256,0,0,0.09259259259259256,40.740740740740726,0)" xlink:href="#ae"/></g><path fill="#133438" d="M115-159c48 0 72 30 72 78 0 54-30 85-83 85-64 0-91-50-91-122 0-98 58-163 141-120 15 8 21 24 27 44l-47 6c-5-31-48-31-61-4-7 14-11 33-11 60 9-17 28-27 53-27zM102-35c24 0 36-20 36-45s-11-43-37-43c-23 0-36 14-36 38 0 27 11 50 37 50" id="aK"/><path fill="#133438" d="M101-251c68 0 84 54 84 127C185-50 166 4 99 4S15-52 14-124c-1-75 17-127 87-127zm-1 216c37-5 36-46 36-89s4-89-36-89c-39 0-36 45-36 89 0 43-3 85 36 89" id="aL"/><path fill="#133438" d="M249-155c45 1 62 31 62 79-1 48-18 79-63 79s-61-32-62-79c0-48 16-79 63-79zM97 0H61l162-248h36zM9-172c0-48 16-79 63-78 46 0 62 31 62 78 0 48-18 79-63 79S9-124 9-172zM249-25c24 0 24-26 24-51 0-26-1-52-24-52-24 0-25 26-25 52 0 25 0 51 25 51zM71-120c23 0 24-25 24-52 0-26 0-51-23-51-25 0-25 25-25 51 0 27 1 52 24 52" id="aM"/><g id="l"><use transform="matrix(0.09259259259259255,0,0,0.09259259259259255,0,0)" xlink:href="#aK"/><use transform="matrix(0.09259259259259255,0,0,0.09259259259259255,18.51851851851851,0)" xlink:href="#aL"/><use transform="matrix(0.09259259259259255,0,0,0.09259259259259255,37.03703703703702,0)" xlink:href="#aM"/></g><path fill="#3a414a" d="M233-177c-1 41-23 64-60 70L243 0h-38l-65-103H63V0H30v-248c88 3 205-21 203 71zM63-129c60-2 137 13 137-47 0-61-80-42-137-45v92" id="aN"/><path fill="#3a414a" d="M210-169c-67 3-38 105-44 169h-31v-121c0-29-5-50-35-48C34-165 62-65 56 0H25l-1-190h30c1 10-1 24 2 32 10-44 99-50 107 0 11-21 27-35 58-36 85-2 47 119 55 194h-31v-121c0-29-5-49-35-48" id="aO"/><g id="m"><use transform="matrix(0.07407407407407404,0,0,0.07407407407407404,0,0)" xlink:href="#aN"/><use transform="matrix(0.07407407407407404,0,0,0.07407407407407404,19.185185185185176,0)" xlink:href="#ai"/><use transform="matrix(0.07407407407407404,0,0,0.07407407407407404,33.999999999999986,0)" xlink:href="#aE"/><use transform="matrix(0.07407407407407404,0,0,0.07407407407407404,47.333333333333314,0)" xlink:href="#ad"/><use transform="matrix(0.07407407407407404,0,0,0.07407407407407404,62.148148148148124,0)" xlink:href="#aO"/><use transform="matrix(0.07407407407407404,0,0,0.07407407407407404,84.29629629629626,0)" xlink:href="#aH"/><use transform="matrix(0.07407407407407404,0,0,0.07407407407407404,99.11111111111107,0)" xlink:href="#ah"/><use transform="matrix(0.07407407407407404,0,0,0.07407407407407404,104.96296296296292,0)" xlink:href="#ai"/></g><path fill="#3a414a" d="M27 0v-27h64v-190l-56 39v-29l58-41h29v221h61V0H27" id="aP"/><use transform="matrix(0.07407407407407404,0,0,0.07407407407407404,0,0)" xlink:href="#aP" id="n"/><g id="o"><use transform="matrix(0.07407407407407404,0,0,0.07407407407407404,0,0)" xlink:href="#aN"/><use transform="matrix(0.07407407407407404,0,0,0.07407407407407404,19.185185185185176,0)" xlink:href="#ai"/><use transform="matrix(0.07407407407407404,0,0,0.07407407407407404,33.999999999999986,0)" xlink:href="#aE"/><use transform="matrix(0.07407407407407404,0,0,0.07407407407407404,47.333333333333314,0)" xlink:href="#ad"/><use transform="matrix(0.07407407407407404,0,0,0.07407407407407404,62.148148148148124,0)" xlink:href="#aO"/><use transform="matrix(0.07407407407407404,0,0,0.07407407407407404,84.29629629629626,0)" xlink:href="#aH"/><use transform="matrix(0.07407407407407404,0,0,0.07407407407407404,99.11111111111107,0)" xlink:href="#ah"/><use transform="matrix(0.07407407407407404,0,0,0.07407407407407404,104.96296296296292,0)" xlink:href="#ai"/></g><path fill="#3a414a" d="M101-251c82-7 93 87 43 132L82-64C71-53 59-42 53-27h129V0H18c2-99 128-94 128-182 0-28-16-43-45-43s-46 15-49 41l-32-3c6-41 34-60 81-64" id="aQ"/><use transform="matrix(0.07407407407407404,0,0,0.07407407407407404,0,0)" xlink:href="#aQ" id="p"/><path fill="#3a414a" d="M143 0L79-87 56-68V0H24v-261h32v163l83-92h37l-77 82L181 0h-38" id="aR"/><use transform="matrix(0.07407407407407404,0,0,0.07407407407407404,0,0)" xlink:href="#aR" id="q"/><path fill="#3a414a" d="M205 0l-28-72H64L36 0H1l101-248h38L239 0h-34zm-38-99l-47-123c-12 45-31 82-46 123h93" id="aS"/><path fill="#3a414a" d="M179-190L93 31C79 59 56 82 12 73V49c39 6 53-20 64-50L1-190h34L92-34l54-156h33" id="aT"/><g id="r"><use transform="matrix(0.08024691358024688,0,0,0.08024691358024688,0,0)" xlink:href="#aS"/><use transform="matrix(0.08024691358024688,0,0,0.08024691358024688,19.259259259259252,0)" xlink:href="#al"/><use transform="matrix(0.08024691358024688,0,0,0.08024691358024688,35.30864197530863,0)" xlink:href="#ad"/><use transform="matrix(0.08024691358024688,0,0,0.08024691358024688,51.35802469135801,0)" xlink:href="#ah"/><use transform="matrix(0.08024691358024688,0,0,0.08024691358024688,57.69753086419752,0)" xlink:href="#aT"/><use transform="matrix(0.08024691358024688,0,0,0.08024691358024688,72.14197530864196,0)" xlink:href="#aE"/><use transform="matrix(0.08024691358024688,0,0,0.08024691358024688,86.5864197530864,0)" xlink:href="#ak"/><use transform="matrix(0.08024691358024688,0,0,0.08024691358024688,92.92592592592591,0)" xlink:href="#aE"/></g><g id="s"><use transform="matrix(0.08024691358024688,0,0,0.08024691358024688,0,0)" xlink:href="#aS"/><use transform="matrix(0.08024691358024688,0,0,0.08024691358024688,19.259259259259252,0)" xlink:href="#aE"/><use transform="matrix(0.08024691358024688,0,0,0.08024691358024688,33.703703703703695,0)" xlink:href="#aE"/><use transform="matrix(0.08024691358024688,0,0,0.08024691358024688,48.14814814814814,0)" xlink:href="#ai"/><use transform="matrix(0.08024691358024688,0,0,0.08024691358024688,64.19753086419752,0)" xlink:href="#aE"/><use transform="matrix(0.08024691358024688,0,0,0.08024691358024688,78.64197530864196,0)" xlink:href="#aE"/><use transform="matrix(0.08024691358024688,0,0,0.08024691358024688,93.0864197530864,0)" xlink:href="#aO"/><use transform="matrix(0.08024691358024688,0,0,0.08024691358024688,117.08024691358021,0)" xlink:href="#ai"/><use transform="matrix(0.08024691358024688,0,0,0.08024691358024688,133.1296296296296,0)" xlink:href="#al"/><use transform="matrix(0.08024691358024688,0,0,0.08024691358024688,149.17901234567896,0)" xlink:href="#ae"/></g><g id="t"><use transform="matrix(0.08024691358024688,0,0,0.08024691358024688,0,0)" xlink:href="#aS"/><use transform="matrix(0.08024691358024688,0,0,0.08024691358024688,19.259259259259252,0)" xlink:href="#al"/><use transform="matrix(0.08024691358024688,0,0,0.08024691358024688,35.30864197530863,0)" xlink:href="#ad"/><use transform="matrix(0.08024691358024688,0,0,0.08024691358024688,51.35802469135801,0)" xlink:href="#ah"/><use transform="matrix(0.08024691358024688,0,0,0.08024691358024688,57.69753086419752,0)" xlink:href="#aT"/><use transform="matrix(0.08024691358024688,0,0,0.08024691358024688,72.14197530864196,0)" xlink:href="#aE"/><use transform="matrix(0.08024691358024688,0,0,0.08024691358024688,86.5864197530864,0)" xlink:href="#ak"/><use transform="matrix(0.08024691358024688,0,0,0.08024691358024688,92.92592592592591,0)" xlink:href="#aE"/></g><path fill="#3a414a" d="M23 0v-37h61v-169l-59 37v-38l62-41h46v211h57V0H23" id="aU"/><path fill="#3a414a" d="M101-251c68 0 84 54 84 127C185-50 166 4 99 4S15-52 14-124c-1-75 17-127 87-127zm-1 216c37-5 36-46 36-89s4-89-36-89c-39 0-36 45-36 89 0 43-3 85 36 89" id="aV"/><g id="u"><use transform="matrix(0.0864197530864197,0,0,0.0864197530864197,0,0)" xlink:href="#aU"/><use transform="matrix(0.0864197530864197,0,0,0.0864197530864197,17.283950617283942,0)" xlink:href="#aV"/></g><path fill="#3a414a" d="M121-226c-27-7-43 5-38 36h38v33H83V0H34v-157H6v-33h28c-9-59 32-81 87-68v32" id="aW"/><path fill="#3a414a" d="M110-194c64 0 96 36 96 99 0 64-35 99-97 99-61 0-95-36-95-99 0-62 34-99 96-99zm-1 164c35 0 45-28 45-65 0-40-10-65-43-65-34 0-45 26-45 65 0 36 10 65 43 65" id="aX"/><path fill="#3a414a" d="M25 0v-261h50V0H25" id="aY"/><path fill="#3a414a" d="M88-194c31-1 46 15 58 34l-1-101h50l1 261h-48c-2-10 0-23-3-31C134-8 116 4 84 4 32 4 16-41 15-95c0-56 19-97 73-99zm17 164c33 0 40-30 41-66 1-37-9-64-41-64s-38 30-39 65c0 43 13 65 39 65" id="aZ"/><g id="v"><use transform="matrix(0.0864197530864197,0,0,0.0864197530864197,0,0)" xlink:href="#aW"/><use transform="matrix(0.0864197530864197,0,0,0.0864197530864197,10.283950617283946,0)" xlink:href="#aX"/><use transform="matrix(0.0864197530864197,0,0,0.0864197530864197,29.209876543209862,0)" xlink:href="#aY"/><use transform="matrix(0.0864197530864197,0,0,0.0864197530864197,37.85185185185183,0)" xlink:href="#aZ"/></g><path fill="#3a414a" d="M190-63c-7 42-38 67-86 67-59 0-84-38-90-98-12-110 154-137 174-36l-49 2c-2-19-15-32-35-32-30 0-35 28-38 64-6 74 65 87 74 30" id="ba"/><path fill="#3a414a" d="M135-150c-39-12-60 13-60 57V0H25l-1-190h47c2 13-1 29 3 40 6-28 27-53 61-41v41" id="bb"/><path fill="#3a414a" d="M137-138c1-29-70-34-71-4 15 46 118 7 119 86 1 83-164 76-172 9l43-7c4 19 20 25 44 25 33 8 57-30 24-41C81-84 22-81 20-136c-2-80 154-74 161-7" id="bc"/><g id="w"><use transform="matrix(0.0864197530864197,0,0,0.0864197530864197,0,0)" xlink:href="#ba"/><use transform="matrix(0.0864197530864197,0,0,0.0864197530864197,17.283950617283942,0)" xlink:href="#bb"/><use transform="matrix(0.0864197530864197,0,0,0.0864197530864197,29.3827160493827,0)" xlink:href="#aX"/><use transform="matrix(0.0864197530864197,0,0,0.0864197530864197,48.30864197530862,0)" xlink:href="#bc"/><use transform="matrix(0.0864197530864197,0,0,0.0864197530864197,65.59259259259255,0)" xlink:href="#bc"/></g><path fill="#3a414a" d="M128 0H69L1-190h53L99-40l48-150h52" id="bd"/><path fill="#3a414a" d="M133-34C117-15 103 5 69 4 32 3 11-16 11-54c-1-60 55-63 116-61 1-26-3-47-28-47-18 1-26 9-28 27l-52-2c7-38 36-58 82-57s74 22 75 68l1 82c-1 14 12 18 25 15v27c-30 8-71 5-69-32zm-48 3c29 0 43-24 42-57-32 0-66-3-65 30 0 17 8 27 23 27" id="be"/><path fill="#3a414a" d="M25-224v-37h50v37H25zM25 0v-190h50V0H25" id="bf"/><path fill="#3a414a" d="M115-3C79 11 28 4 28-45v-112H4v-33h27l15-45h31v45h36v33H77v99c-1 23 16 31 38 25v30" id="bg"/><path fill="#3a414a" d="M135-194c87-1 58 113 63 194h-50c-7-57 23-157-34-157-59 0-34 97-39 157H25l-1-190h47c2 12-1 28 3 38 12-26 28-41 61-42" id="bh"/><g id="x"><use transform="matrix(0.0864197530864197,0,0,0.0864197530864197,0,0)" xlink:href="#bd"/><use transform="matrix(0.0864197530864197,0,0,0.0864197530864197,17.283950617283942,0)" xlink:href="#be"/><use transform="matrix(0.0864197530864197,0,0,0.0864197530864197,34.567901234567884,0)" xlink:href="#aY"/><use transform="matrix(0.0864197530864197,0,0,0.0864197530864197,43.20987654320986,0)" xlink:href="#bf"/><use transform="matrix(0.0864197530864197,0,0,0.0864197530864197,51.85185185185183,0)" xlink:href="#aZ"/><use transform="matrix(0.0864197530864197,0,0,0.0864197530864197,70.77777777777774,0)" xlink:href="#be"/><use transform="matrix(0.0864197530864197,0,0,0.0864197530864197,88.06172839506169,0)" xlink:href="#bg"/><use transform="matrix(0.0864197530864197,0,0,0.0864197530864197,98.34567901234564,0)" xlink:href="#bf"/><use transform="matrix(0.0864197530864197,0,0,0.0864197530864197,106.98765432098762,0)" xlink:href="#aX"/><use transform="matrix(0.0864197530864197,0,0,0.0864197530864197,125.91358024691353,0)" xlink:href="#bh"/></g><path fill="#fff" d="M240 0l2-218c-23 76-54 145-80 218h-23L58-218 59 0H30v-248h44l77 211c21-75 51-140 76-211h43V0h-30" id="bi"/><path fill="#fff" d="M100-194c63 0 86 42 84 106H49c0 40 14 67 53 68 26 1 43-12 49-29l28 8c-11 28-37 45-77 45C44 4 14-33 15-96c1-61 26-98 85-98zm52 81c6-60-76-77-97-28-3 7-6 17-6 28h103" id="bj"/><path fill="#fff" d="M59-47c-2 24 18 29 38 22v24C64 9 27 4 27-40v-127H5v-23h24l9-43h21v43h35v23H59v120" id="bk"/><path fill="#fff" d="M114-163C36-179 61-72 57 0H25l-1-190h30c1 12-1 29 2 39 6-27 23-49 58-41v29" id="bl"/><path fill="#fff" d="M24-231v-30h32v30H24zM24 0v-190h32V0H24" id="bm"/><path fill="#fff" d="M96-169c-40 0-48 33-48 73s9 75 48 75c24 0 41-14 43-38l32 2c-6 37-31 61-74 61-59 0-76-41-82-99-10-93 101-131 147-64 4 7 5 14 7 22l-32 3c-4-21-16-35-41-35" id="bn"/><g id="y"><use transform="matrix(0.08024691358024688,0,0,0.08024691358024688,0,0)" xlink:href="#bi"/><use transform="matrix(0.08024691358024688,0,0,0.08024691358024688,23.99382716049382,0)" xlink:href="#bj"/><use transform="matrix(0.08024691358024688,0,0,0.08024691358024688,40.043209876543195,0)" xlink:href="#bk"/><use transform="matrix(0.08024691358024688,0,0,0.08024691358024688,48.067901234567884,0)" xlink:href="#bl"/><use transform="matrix(0.08024691358024688,0,0,0.08024691358024688,57.617283950617264,0)" xlink:href="#bm"/><use transform="matrix(0.08024691358024688,0,0,0.08024691358024688,63.95679012345678,0)" xlink:href="#bn"/></g><g id="z"><use transform="matrix(0.08024691358024688,0,0,0.08024691358024688,0,0)" xlink:href="#bi"/><use transform="matrix(0.08024691358024688,0,0,0.08024691358024688,23.99382716049382,0)" xlink:href="#bj"/><use transform="matrix(0.08024691358024688,0,0,0.08024691358024688,40.043209876543195,0)" xlink:href="#bk"/><use transform="matrix(0.08024691358024688,0,0,0.08024691358024688,48.067901234567884,0)" xlink:href="#bl"/><use transform="matrix(0.08024691358024688,0,0,0.08024691358024688,57.617283950617264,0)" xlink:href="#bm"/><use transform="matrix(0.08024691358024688,0,0,0.08024691358024688,63.95679012345678,0)" xlink:href="#bn"/></g><path fill="#133438" d="M165-50V0h-47v-50H5v-38l105-160h55v161h33v37h-33zm-47-37l2-116L46-87h72" id="bo"/><g id="A"><use transform="matrix(0.09259259259259255,0,0,0.09259259259259255,0,0)" xlink:href="#bo"/><use transform="matrix(0.09259259259259255,0,0,0.09259259259259255,18.51851851851851,0)" xlink:href="#aL"/><use transform="matrix(0.09259259259259255,0,0,0.09259259259259255,37.03703703703702,0)" xlink:href="#aM"/></g><path fill="#fff" d="M143 4C61 4 22-44 18-125c-5-107 100-154 193-111 17 8 29 25 37 43l-32 9c-13-25-37-40-76-40-61 0-88 39-88 99 0 61 29 100 91 101 35 0 62-11 79-27v-45h-74v-28h105v86C228-13 192 4 143 4" id="bp"/><path fill="#fff" d="M100-194c62-1 85 37 85 99 1 63-27 99-86 99S16-35 15-95c0-66 28-99 85-99zM99-20c44 1 53-31 53-75 0-43-8-75-51-75s-53 32-53 75 10 74 51 75" id="bq"/><path fill="#fff" d="M84 4C-5 8 30-112 23-190h32v120c0 31 7 50 39 49 72-2 45-101 50-169h31l1 190h-30c-1-10 1-25-2-33-11 22-28 36-60 37" id="br"/><path fill="#fff" d="M115-194c55 1 70 41 70 98S169 2 115 4C84 4 66-9 55-30l1 105H24l-1-265h31l2 30c10-21 28-34 59-34zm-8 174c40 0 45-34 45-75s-6-73-45-74c-42 0-51 32-51 76 0 43 10 73 51 73" id="bs"/><g id="B"><use transform="matrix(0.09259259259259256,0,0,0.09259259259259256,0,0)" xlink:href="#bp"/><use transform="matrix(0.09259259259259256,0,0,0.09259259259259256,25.925925925925917,0)" xlink:href="#bl"/><use transform="matrix(0.09259259259259256,0,0,0.09259259259259256,36.94444444444443,0)" xlink:href="#bq"/><use transform="matrix(0.09259259259259256,0,0,0.09259259259259256,55.46296296296294,0)" xlink:href="#br"/><use transform="matrix(0.09259259259259256,0,0,0.09259259259259256,73.98148148148145,0)" xlink:href="#bs"/></g><path fill="#fff" d="M185-189c-5-48-123-54-124 2 14 75 158 14 163 119 3 78-121 87-175 55-17-10-28-26-33-46l33-7c5 56 141 63 141-1 0-78-155-14-162-118-5-82 145-84 179-34 5 7 8 16 11 25" id="bt"/><path fill="#fff" d="M24 0v-261h32V0H24" id="bu"/><g id="C"><use transform="matrix(0.09259259259259256,0,0,0.09259259259259256,0,0)" xlink:href="#bt"/><use transform="matrix(0.09259259259259256,0,0,0.09259259259259256,22.222222222222214,0)" xlink:href="#bs"/><use transform="matrix(0.09259259259259256,0,0,0.09259259259259256,40.740740740740726,0)" xlink:href="#bu"/><use transform="matrix(0.09259259259259256,0,0,0.09259259259259256,48.055555555555536,0)" xlink:href="#bm"/><use transform="matrix(0.09259259259259256,0,0,0.09259259259259256,55.37037037037034,0)" xlink:href="#bk"/></g><g id="D"><use transform="matrix(0.09259259259259256,0,0,0.09259259259259256,0,0)" xlink:href="#aB"/><use transform="matrix(0.09259259259259256,0,0,0.09259259259259256,18.518518518518512,0)" xlink:href="#ai"/><use transform="matrix(0.09259259259259256,0,0,0.09259259259259256,37.037037037037024,0)" xlink:href="#ad"/><use transform="matrix(0.09259259259259256,0,0,0.09259259259259256,55.555555555555536,0)" xlink:href="#aC"/><use transform="matrix(0.09259259259259256,0,0,0.09259259259259256,66.57407407407405,0)" xlink:href="#al"/><use transform="matrix(0.09259259259259256,0,0,0.09259259259259256,85.09259259259255,0)" xlink:href="#ak"/><use transform="matrix(0.09259259259259256,0,0,0.09259259259259256,92.40740740740736,0)" xlink:href="#al"/><use transform="matrix(0.09259259259259256,0,0,0.09259259259259256,110.92592592592587,0)" xlink:href="#aD"/></g><g id="E"><use transform="matrix(0.09259259259259256,0,0,0.09259259259259256,0,0)" xlink:href="#ac"/><use transform="matrix(0.09259259259259256,0,0,0.09259259259259256,23.981481481481474,0)" xlink:href="#ad"/><use transform="matrix(0.09259259259259256,0,0,0.09259259259259256,42.499999999999986,0)" xlink:href="#ae"/><use transform="matrix(0.09259259259259256,0,0,0.09259259259259256,51.75925925925924,0)" xlink:href="#ad"/><use transform="matrix(0.09259259259259256,0,0,0.09259259259259256,70.27777777777774,0)" xlink:href="#aE"/><use transform="matrix(0.09259259259259256,0,0,0.09259259259259256,86.9444444444444,0)" xlink:href="#ai"/><use transform="matrix(0.09259259259259256,0,0,0.09259259259259256,105.4629629629629,0)" xlink:href="#ae"/></g><path fill="#3a414a" d="M63-220v92h138v28H63V0H30v-248h175v28H63" id="bv"/><path fill="#3a414a" d="M84 4C-5 8 30-112 23-190h32v120c0 31 7 50 39 49 72-2 45-101 50-169h31l1 190h-30c-1-10 1-25-2-33-11 22-28 36-60 37" id="bw"/><g id="F"><use transform="matrix(0.09259259259259256,0,0,0.09259259259259256,0,0)" xlink:href="#bv"/><use transform="matrix(0.09259259259259256,0,0,0.09259259259259256,20.27777777777777,0)" xlink:href="#ai"/><use transform="matrix(0.09259259259259256,0,0,0.09259259259259256,38.79629629629628,0)" xlink:href="#ad"/><use transform="matrix(0.09259259259259256,0,0,0.09259259259259256,57.314814814814795,0)" xlink:href="#ae"/><use transform="matrix(0.09259259259259256,0,0,0.09259259259259256,66.57407407407405,0)" xlink:href="#bw"/><use transform="matrix(0.09259259259259256,0,0,0.09259259259259256,85.09259259259255,0)" xlink:href="#aC"/><use transform="matrix(0.09259259259259256,0,0,0.09259259259259256,96.11111111111107,0)" xlink:href="#ai"/></g><g id="G"><use transform="matrix(0.09259259259259256,0,0,0.09259259259259256,0,0)" xlink:href="#aE"/><use transform="matrix(0.09259259259259256,0,0,0.09259259259259256,16.66666666666666,0)" xlink:href="#ai"/><use transform="matrix(0.09259259259259256,0,0,0.09259259259259256,35.185185185185176,0)" xlink:href="#ah"/><use transform="matrix(0.09259259259259256,0,0,0.09259259259259256,42.499999999999986,0)" xlink:href="#ai"/><use transform="matrix(0.09259259259259256,0,0,0.09259259259259256,61.0185185185185,0)" xlink:href="#aj"/><use transform="matrix(0.09259259259259256,0,0,0.09259259259259256,77.68518518518516,0)" xlink:href="#ae"/><use transform="matrix(0.09259259259259256,0,0,0.09259259259259256,86.94444444444441,0)" xlink:href="#ak"/><use transform="matrix(0.09259259259259256,0,0,0.09259259259259256,94.25925925925922,0)" xlink:href="#ag"/><use transform="matrix(0.09259259259259256,0,0,0.09259259259259256,112.77777777777774,0)" xlink:href="#al"/></g><path fill="#3a414a" d="M240 0l2-218c-23 76-54 145-80 218h-23L58-218 59 0H30v-248h44l77 211c21-75 51-140 76-211h43V0h-30" id="bx"/><g id="H"><use transform="matrix(0.09259259259259256,0,0,0.09259259259259256,0,0)" xlink:href="#bx"/><use transform="matrix(0.09259259259259256,0,0,0.09259259259259256,27.685185185185176,0)" xlink:href="#ag"/><use transform="matrix(0.09259259259259256,0,0,0.09259259259259256,46.20370370370369,0)" xlink:href="#aG"/><use transform="matrix(0.09259259259259256,0,0,0.09259259259259256,64.7222222222222,0)" xlink:href="#ai"/><use transform="matrix(0.09259259259259256,0,0,0.09259259259259256,83.2407407407407,0)" xlink:href="#ah"/></g><g id="I"><use transform="matrix(0.09259259259259256,0,0,0.09259259259259256,0,0)" xlink:href="#bv"/><use transform="matrix(0.09259259259259256,0,0,0.09259259259259256,20.27777777777777,0)" xlink:href="#ak"/><use transform="matrix(0.09259259259259256,0,0,0.09259259259259256,27.59259259259258,0)" xlink:href="#ae"/><use transform="matrix(0.09259259259259256,0,0,0.09259259259259256,36.85185185185184,0)" xlink:href="#ae"/><use transform="matrix(0.09259259259259256,0,0,0.09259259259259256,46.1111111111111,0)" xlink:href="#ak"/><use transform="matrix(0.09259259259259256,0,0,0.09259259259259256,53.42592592592591,0)" xlink:href="#al"/><use transform="matrix(0.09259259259259256,0,0,0.09259259259259256,71.94444444444443,0)" xlink:href="#aD"/></g><path fill="#3a414a" d="M108 0H70L1-190h34L89-25l56-165h34" id="by"/><g id="J"><use transform="matrix(0.09259259259259256,0,0,0.09259259259259256,0,0)" xlink:href="#by"/><use transform="matrix(0.09259259259259256,0,0,0.09259259259259256,16.66666666666666,0)" xlink:href="#ak"/><use transform="matrix(0.09259259259259256,0,0,0.09259259259259256,23.981481481481474,0)" xlink:href="#ad"/></g><path fill="#3a414a" d="M101-251c68 0 85 55 85 127S166 4 100 4C33 4 14-52 14-124c0-73 17-127 87-127zm-1 229c47 0 54-49 54-102s-4-102-53-102c-51 0-55 48-55 102 0 53 5 102 54 102" id="bz"/><path fill="#3a414a" d="M16-82v-28h88v28H16" id="bA"/><path fill="#3a414a" d="M101-234c-31-9-42 10-38 44h38v23H63V0H32v-167H5v-23h27c-7-52 17-82 69-68v24" id="bB"/><g id="K"><use transform="matrix(0.09259259259259256,0,0,0.09259259259259256,0,0)" xlink:href="#aP"/><use transform="matrix(0.09259259259259256,0,0,0.09259259259259256,18.518518518518512,0)" xlink:href="#bz"/><use transform="matrix(0.09259259259259256,0,0,0.09259259259259256,37.037037037037024,0)" xlink:href="#bA"/><use transform="matrix(0.09259259259259256,0,0,0.09259259259259256,48.055555555555536,0)" xlink:href="#bB"/><use transform="matrix(0.09259259259259256,0,0,0.09259259259259256,57.314814814814795,0)" xlink:href="#ag"/><use transform="matrix(0.09259259259259256,0,0,0.09259259259259256,75.83333333333331,0)" xlink:href="#ah"/><use transform="matrix(0.09259259259259256,0,0,0.09259259259259256,83.14814814814812,0)" xlink:href="#aG"/></g><g id="L"><use transform="matrix(0.09259259259259256,0,0,0.09259259259259256,0,0)" xlink:href="#aj"/><use transform="matrix(0.09259259259259256,0,0,0.09259259259259256,16.66666666666666,0)" xlink:href="#aC"/><use transform="matrix(0.09259259259259256,0,0,0.09259259259259256,27.685185185185176,0)" xlink:href="#ag"/><use transform="matrix(0.09259259259259256,0,0,0.09259259259259256,46.20370370370369,0)" xlink:href="#aE"/><use transform="matrix(0.09259259259259256,0,0,0.09259259259259256,62.870370370370345,0)" xlink:href="#aE"/></g><g id="M"><use transform="matrix(0.09259259259259256,0,0,0.09259259259259256,0,0)" xlink:href="#by"/><use transform="matrix(0.09259259259259256,0,0,0.09259259259259256,16.66666666666666,0)" xlink:href="#ad"/><use transform="matrix(0.09259259259259256,0,0,0.09259259259259256,35.185185185185176,0)" xlink:href="#ah"/><use transform="matrix(0.09259259259259256,0,0,0.09259259259259256,42.499999999999986,0)" xlink:href="#ak"/><use transform="matrix(0.09259259259259256,0,0,0.09259259259259256,49.814814814814795,0)" xlink:href="#aG"/><use transform="matrix(0.09259259259259256,0,0,0.09259259259259256,68.33333333333331,0)" xlink:href="#ad"/><use transform="matrix(0.09259259259259256,0,0,0.09259259259259256,86.85185185185182,0)" xlink:href="#ae"/><use transform="matrix(0.09259259259259256,0,0,0.09259259259259256,96.11111111111107,0)" xlink:href="#ak"/><use transform="matrix(0.09259259259259256,0,0,0.09259259259259256,103.4259259259259,0)" xlink:href="#ag"/><use transform="matrix(0.09259259259259256,0,0,0.09259259259259256,121.9444444444444,0)" xlink:href="#al"/></g><path fill="#3a414a" d="M30 0v-248h187v28H63v79h144v27H63v87h162V0H30" id="bC"/><g id="N"><use transform="matrix(0.09259259259259256,0,0,0.09259259259259256,0,0)" xlink:href="#bC"/><use transform="matrix(0.09259259259259256,0,0,0.09259259259259256,22.222222222222214,0)" xlink:href="#by"/><use transform="matrix(0.09259259259259256,0,0,0.09259259259259256,38.88888888888887,0)" xlink:href="#ad"/><use transform="matrix(0.09259259259259256,0,0,0.09259259259259256,57.40740740740739,0)" xlink:href="#ah"/><use transform="matrix(0.09259259259259256,0,0,0.09259259259259256,64.7222222222222,0)" xlink:href="#bw"/><use transform="matrix(0.09259259259259256,0,0,0.09259259259259256,83.2407407407407,0)" xlink:href="#ad"/><use transform="matrix(0.09259259259259256,0,0,0.09259259259259256,101.7592592592592,0)" xlink:href="#ae"/><use transform="matrix(0.09259259259259256,0,0,0.09259259259259256,111.01851851851846,0)" xlink:href="#ak"/><use transform="matrix(0.09259259259259256,0,0,0.09259259259259256,118.33333333333327,0)" xlink:href="#ag"/><use transform="matrix(0.09259259259259256,0,0,0.09259259259259256,136.8518518518518,0)" xlink:href="#al"/></g><g id="O"><use transform="matrix(0.09259259259259256,0,0,0.09259259259259256,0,0)" xlink:href="#ag"/><use transform="matrix(0.09259259259259256,0,0,0.09259259259259256,18.518518518518512,0)" xlink:href="#bB"/></g><path fill="#3a414a" d="M115-194c53 0 69 39 70 98 0 66-23 100-70 100C84 3 66-7 56-30L54 0H23l1-261h32v101c10-23 28-34 59-34zm-8 174c40 0 45-34 45-75 0-40-5-75-45-74-42 0-51 32-51 76 0 43 10 73 51 73" id="bD"/><g id="P"><use transform="matrix(0.09259259259259256,0,0,0.09259259259259256,0,0)" xlink:href="#bD"/><use transform="matrix(0.09259259259259256,0,0,0.09259259259259256,18.518518518518512,0)" xlink:href="#ai"/><use transform="matrix(0.09259259259259256,0,0,0.09259259259259256,37.037037037037024,0)" xlink:href="#aE"/><use transform="matrix(0.09259259259259256,0,0,0.09259259259259256,53.70370370370368,0)" xlink:href="#ae"/></g><g id="Q"><use transform="matrix(0.09259259259259256,0,0,0.09259259259259256,0,0)" xlink:href="#aO"/><use transform="matrix(0.09259259259259256,0,0,0.09259259259259256,27.685185185185176,0)" xlink:href="#ag"/><use transform="matrix(0.09259259259259256,0,0,0.09259259259259256,46.20370370370369,0)" xlink:href="#aG"/><use transform="matrix(0.09259259259259256,0,0,0.09259259259259256,64.7222222222222,0)" xlink:href="#ai"/><use transform="matrix(0.09259259259259256,0,0,0.09259259259259256,83.2407407407407,0)" xlink:href="#ah"/><use transform="matrix(0.09259259259259256,0,0,0.09259259259259256,90.55555555555551,0)" xlink:href="#aE"/></g><path fill="#3a414a" d="M234-2c-28 10-62 0-77-18C117 19 8 12 13-65c3-43 29-61 60-76-25-40-17-114 47-108 35 3 59 15 59 50 0 44-40 53-71 69 14 26 32 50 51 72 14-21 24-43 30-72l26 8c-9 33-21 57-38 82 13 13 33 22 57 15v23zM97-151c25-10 52-18 56-48-1-18-13-29-33-29-42 0-39 50-23 77zM42-66c-3 51 71 58 98 28-20-24-41-51-56-80-23 10-40 24-42 52" id="bE"/><use transform="matrix(0.09259259259259256,0,0,0.09259259259259256,0,0)" xlink:href="#bE" id="R"/><path fill="#3a414a" d="M106-169C34-169 62-67 57 0H25v-261h32l-1 103c12-21 28-36 61-36 89 0 53 116 60 194h-32v-121c2-32-8-49-39-48" id="bF"/><g id="S"><use transform="matrix(0.09259259259259256,0,0,0.09259259259259256,0,0)" xlink:href="#bF"/><use transform="matrix(0.09259259259259256,0,0,0.09259259259259256,18.518518518518512,0)" xlink:href="#aT"/><use transform="matrix(0.09259259259259256,0,0,0.09259259259259256,35.185185185185176,0)" xlink:href="#aH"/><use transform="matrix(0.09259259259259256,0,0,0.09259259259259256,53.70370370370368,0)" xlink:href="#ai"/><use transform="matrix(0.09259259259259256,0,0,0.09259259259259256,72.2222222222222,0)" xlink:href="#aC"/><use transform="matrix(0.09259259259259256,0,0,0.09259259259259256,83.24074074074072,0)" xlink:href="#aH"/><use transform="matrix(0.09259259259259256,0,0,0.09259259259259256,101.75925925925924,0)" xlink:href="#ad"/><use transform="matrix(0.09259259259259256,0,0,0.09259259259259256,120.27777777777773,0)" xlink:href="#aC"/><use transform="matrix(0.09259259259259256,0,0,0.09259259259259256,131.29629629629625,0)" xlink:href="#ad"/><use transform="matrix(0.09259259259259256,0,0,0.09259259259259256,149.81481481481475,0)" xlink:href="#aO"/><use transform="matrix(0.09259259259259256,0,0,0.09259259259259256,177.49999999999994,0)" xlink:href="#ai"/><use transform="matrix(0.09259259259259256,0,0,0.09259259259259256,196.01851851851845,0)" xlink:href="#ae"/><use transform="matrix(0.09259259259259256,0,0,0.09259259259259256,205.27777777777771,0)" xlink:href="#ai"/><use transform="matrix(0.09259259259259256,0,0,0.09259259259259256,223.79629629629622,0)" xlink:href="#aC"/><use transform="matrix(0.09259259259259256,0,0,0.09259259259259256,234.81481481481472,0)" xlink:href="#aE"/></g><path fill="#3a414a" d="M160-131c35 5 61 23 61 61C221 17 115-2 30 0v-248c76 3 177-17 177 60 0 33-19 50-47 57zm-97-11c50-1 110 9 110-42 0-47-63-36-110-37v79zm0 115c55-2 124 14 124-45 0-56-70-42-124-44v89" id="bG"/><g id="T"><use transform="matrix(0.09259259259259256,0,0,0.09259259259259256,0,0)" xlink:href="#bG"/><use transform="matrix(0.09259259259259256,0,0,0.09259259259259256,22.222222222222214,0)" xlink:href="#ai"/><use transform="matrix(0.09259259259259256,0,0,0.09259259259259256,40.740740740740726,0)" xlink:href="#aE"/><use transform="matrix(0.09259259259259256,0,0,0.09259259259259256,57.40740740740739,0)" xlink:href="#ae"/></g><g id="U"><use transform="matrix(0.09259259259259256,0,0,0.09259259259259256,0,0)" xlink:href="#aO"/><use transform="matrix(0.09259259259259256,0,0,0.09259259259259256,27.685185185185176,0)" xlink:href="#ag"/><use transform="matrix(0.09259259259259256,0,0,0.09259259259259256,46.20370370370369,0)" xlink:href="#aG"/><use transform="matrix(0.09259259259259256,0,0,0.09259259259259256,64.7222222222222,0)" xlink:href="#ai"/><use transform="matrix(0.09259259259259256,0,0,0.09259259259259256,83.2407407407407,0)" xlink:href="#ah"/></g><path fill="#3a414a" d="M206 0h-36l-40-164L89 0H53L-1-190h32L70-26l43-164h34l41 164 42-164h31" id="bH"/><g id="V"><use transform="matrix(0.09259259259259256,0,0,0.09259259259259256,0,0)" xlink:href="#bH"/><use transform="matrix(0.09259259259259256,0,0,0.09259259259259256,23.981481481481474,0)" xlink:href="#ak"/><use transform="matrix(0.09259259259259256,0,0,0.09259259259259256,31.296296296296283,0)" xlink:href="#ae"/><use transform="matrix(0.09259259259259256,0,0,0.09259259259259256,40.55555555555554,0)" xlink:href="#bF"/></g><g id="W"><use transform="matrix(0.09259259259259256,0,0,0.09259259259259256,0,0)" xlink:href="#ae"/><use transform="matrix(0.09259259259259256,0,0,0.09259259259259256,9.259259259259256,0)" xlink:href="#bw"/><use transform="matrix(0.09259259259259256,0,0,0.09259259259259256,27.777777777777768,0)" xlink:href="#al"/><use transform="matrix(0.09259259259259256,0,0,0.09259259259259256,46.296296296296276,0)" xlink:href="#ai"/><use transform="matrix(0.09259259259259256,0,0,0.09259259259259256,64.81481481481478,0)" xlink:href="#aG"/></g><g id="X"><use transform="matrix(0.09259259259259256,0,0,0.09259259259259256,0,0)" xlink:href="#bB"/><use transform="matrix(0.09259259259259256,0,0,0.09259259259259256,9.259259259259256,0)" xlink:href="#ak"/><use transform="matrix(0.09259259259259256,0,0,0.09259259259259256,16.57407407407407,0)" xlink:href="#al"/><use transform="matrix(0.09259259259259256,0,0,0.09259259259259256,35.09259259259258,0)" xlink:href="#ad"/><use transform="matrix(0.09259259259259256,0,0,0.09259259259259256,53.61111111111109,0)" xlink:href="#ah"/></g><g id="Y"><use transform="matrix(0.09259259259259256,0,0,0.09259259259259256,0,0)" xlink:href="#ag"/><use transform="matrix(0.09259259259259256,0,0,0.09259259259259256,18.518518518518512,0)" xlink:href="#al"/></g><path fill="#3a414a" d="M67 3c-93-2-31-127-26-193h32L48-50c-3 39 53 32 70 12 30-34 30-101 43-152h32L157 0h-30c1-10 6-24 4-33-14 20-29 37-64 36" id="bI"/><path fill="#3a414a" d="M67-158c22-48 132-52 116 29L158 0h-32l25-140c3-38-53-32-70-12C52-117 51-52 38 0H6l36-190h30" id="bJ"/><path fill="#3a414a" d="M55-144c13 50 104 24 104 88C159 21 15 23 1-39l26-10c6 40 102 42 102-4-13-50-104-23-104-87 0-71 143-71 148-8l-29 4c-5-35-85-37-89 0" id="bK"/><path fill="#3a414a" d="M111-194c62-3 86 47 72 106H45c-7 38 6 69 45 68 27-1 43-14 53-32l24 11C152-15 129 4 87 4 38 3 12-23 12-71c0-70 32-119 99-123zm44 81c14-66-71-72-95-28-4 8-8 17-11 28h106" id="bL"/><g id="Z"><use transform="matrix(0.09259259259259256,0,0,0.09259259259259256,0,0)" xlink:href="#bI"/><use transform="matrix(0.09259259259259256,0,0,0.09259259259259256,18.518518518518512,0)" xlink:href="#bJ"/><use transform="matrix(0.09259259259259256,0,0,0.09259259259259256,37.037037037037024,0)" xlink:href="#bK"/><use transform="matrix(0.09259259259259256,0,0,0.09259259259259256,53.70370370370368,0)" xlink:href="#bL"/><use transform="matrix(0.09259259259259256,0,0,0.09259259259259256,72.2222222222222,0)" xlink:href="#bL"/><use transform="matrix(0.09259259259259256,0,0,0.09259259259259256,90.7407407407407,0)" xlink:href="#bJ"/></g><g id="aa"><use transform="matrix(0.09259259259259256,0,0,0.09259259259259256,0,0)" xlink:href="#ae"/><use transform="matrix(0.09259259259259256,0,0,0.09259259259259256,9.259259259259256,0)" xlink:href="#ai"/><use transform="matrix(0.09259259259259256,0,0,0.09259259259259256,27.777777777777768,0)" xlink:href="#aE"/><use transform="matrix(0.09259259259259256,0,0,0.09259259259259256,44.44444444444443,0)" xlink:href="#ae"/></g><g id="ab"><use transform="matrix(0.09259259259259256,0,0,0.09259259259259256,0,0)" xlink:href="#aG"/><use transform="matrix(0.09259259259259256,0,0,0.09259259259259256,18.518518518518512,0)" xlink:href="#ad"/><use transform="matrix(0.09259259259259256,0,0,0.09259259259259256,37.037037037037024,0)" xlink:href="#ae"/><use transform="matrix(0.09259259259259256,0,0,0.09259259259259256,46.296296296296276,0)" xlink:href="#ad"/></g></defs></g></svg>