<svg xmlns="http://www.w3.org/2000/svg" xmlns:xlink="http://www.w3.org/1999/xlink" xmlns:lucid="lucid" width="2333" height="1483"><g transform="translate(525 546)" lucid:page-tab-id="0_0"><path d="M-500-500h2500v1500H-500z" fill="#fff"/><path d="M-464.23-479.1a6 6 0 0 1 6-6h523.1a6 6 0 0 1 6 6V754.23a6 6 0 0 1-6 6h-523.1a6 6 0 0 1-6-6z" stroke="#000" stroke-opacity="0" stroke-width="2" fill="#f2f3f5"/><path d="M-94.6-189.76c0 56.36-45.7 102.06-102.08 102.06-56.36 0-102.06-45.7-102.06-102.06 0-56.38 45.7-102.07 102.06-102.07 56.38 0 102.07 45.7 102.07 102.06z" stroke="#000" stroke-width="4" fill="#fff"/><use xlink:href="#a" transform="matrix(1,0,0,1,-293.7422242757598,-286.8324725175401) translate(78.33333333333334 105.125)"/><path d="M-97.04 47.63c0 56.37-45.7 102.07-102.07 102.07-56.38 0-102.08-45.7-102.08-102.06 0-56.38 45.7-102.07 102.07-102.07 56.36 0 102.06 45.7 102.06 102.06z" stroke="#000" stroke-width="4" fill="#fff"/><use xlink:href="#b" transform="matrix(1,0,0,1,-296.17693596182187,-49.43169929793518) translate(78.33333333333334 105.125)"/><path d="M-94.6 285.04c0 56.37-45.7 102.06-102.08 102.06-56.36 0-102.06-45.7-102.06-102.06 0-56.37 45.7-102.07 102.06-102.07 56.38 0 102.07 45.7 102.07 102.07z" stroke="#000" stroke-width="4" fill="#fff"/><use xlink:href="#c" transform="matrix(1,0,0,1,-293.7422242757598,187.96907392166975) translate(78.33333333333334 105.125)"/><path d="M-94.6 609c0 56.36-45.7 102.05-102.08 102.05-56.36 0-102.06-45.7-102.06-102.06 0-56.38 45.7-102.08 102.06-102.08 56.38 0 102.07 45.7 102.07 102.07z" stroke="#000" stroke-width="4" fill="#fff"/><use xlink:href="#d" transform="matrix(1,0,0,1,-293.7422242757598,511.92113765276395) translate(79.15 105.125)"/><path d="M235.06 47.65a6 6 0 0 1 6-6h345.9a6 6 0 0 1 6 6v256.42a6 6 0 0 1-6 6h-345.9a6 6 0 0 1-6-6z" stroke="#343a40" stroke-width="3"/><use xlink:href="#e" transform="matrix(1,0,0,1,247.05979346478085,53.64868005671366) translate(94.55555555555554 134.54166666666669)"/><path d="M1115.96 175.86c0 56.37-45.7 102.07-102.07 102.07-56.38 0-102.07-45.7-102.07-102.07 0-56.37 45.7-102.07 102.06-102.07 56.37 0 102.06 45.7 102.06 102.06z" stroke="#282c33" stroke-width="2" fill="#fff"/><use xlink:href="#f" transform="matrix(1,0,0,1,916.8283440967546,78.79222568577575) translate(84.44444444444444 105.125)"/><path d="M1623.3 175.86c0 56.37-45.7 102.07-102.07 102.07-56.37 0-102.07-45.7-102.07-102.07 0-56.37 45.7-102.07 102.07-102.07 56.37 0 102.06 45.7 102.06 102.06z" stroke="#282c33" stroke-width="2" fill="#fff"/><use xlink:href="#g" transform="matrix(1,0,0,1,1424.1586948220142,78.79222568577575) translate(88.66666666666667 105.125)"/><path d="M-92.22-189.46L220.68 56.8" stroke="#000" fill="none"/><path d="M-91.9-189.82l-.6.75-.12-.1v-1.21z" stroke="#000" stroke-width=".05"/><path d="M232.3 65.94l-14.1-5.18 5.75-7.3z" stroke="#000"/><path d="M-94.56 47.76l312.28 82.46" stroke="#000" fill="none"/><path d="M-94.43 47.3l-.24.93-.38-.1v-.99z" stroke="#000" stroke-width=".05"/><path d="M232 134l-14.98.83 2.37-8.97z" stroke="#000"/><path d="M-92.12 284.93l309.7-68.72" stroke="#000" fill="none"/><path d="M-92 285.4l-.62.13v-.98l.4-.1z" stroke="#000" stroke-width=".05"/><path d="M231.98 213l-12.92 7.63-2-9.05z" stroke="#000"/><path d="M-92.26 608.63L222.07 289.1" stroke="#000" fill="none"/><path d="M-91.9 608.96l-.72.72v-1.34l.03-.04z" stroke="#000" stroke-width=".05"/><path d="M232.43 278.58l-6.7 13.42-6.6-6.5z" stroke="#000"/><path d="M594.96 175.86h299.48" stroke="#3a414a" fill="none"/><path d="M594.97 176.33h-.5v-.95h.5z" stroke="#3a414a" stroke-width=".05" fill="#3a414a"/><path d="M909.2 175.86l-14.26 4.63v-9.28z" stroke="#3a414a" fill="#3a414a"/><path d="M1117.46 175.86h5m4.98 0h9.97m5 0h9.98m5 0h9.96m5 0h9.97m5 0h9.97m5 0h9.96m5 0h9.97m4.98 0h9.98m5 0h9.96m5 0h9.97m4.98 0h9.97m5 0h9.97m4.98 0h9.98m5 0h9.96m5 0h9.97m5 0h9.97m5 0h9.97m4.98 0h9.98m5 0h4.98" stroke="#3a414a" fill="none"/><path d="M1117.47 176.33h-.52V175.4h.52z" stroke="#3a414a" stroke-width=".05" fill="#3a414a"/><path d="M1416.54 175.86l-14.26 4.63v-9.28z" stroke="#3a414a" fill="#3a414a"/><path d="M-424.62-413.42a6 6 0 0 1 6-6h443.9a6 6 0 0 1 6 6v115.6a6 6 0 0 1-6 6h-443.9a6 6 0 0 1-6-6z" stroke="#000" stroke-opacity="0" stroke-width="2" fill="#fff" fill-opacity="0"/><use xlink:href="#h" transform="matrix(1,0,0,1,-419.617841096661,-414.42099808031713) translate(8.777777777777771 65.1875)"/><use xlink:href="#i" transform="matrix(1,0,0,1,-419.617841096661,-414.42099808031713) translate(193 65.1875)"/><use xlink:href="#j" transform="matrix(1,0,0,1,-419.617841096661,-414.42099808031713) translate(237.44444444444446 65.1875)"/><path d="M785.95-47.8a6 6 0 0 1 6-6h443.9a6 6 0 0 1 6 6V67.8a6 6 0 0 1-6 6h-443.9a6 6 0 0 1-6-6z" stroke="#000" stroke-opacity="0" stroke-width="2" fill="#fff" fill-opacity="0"/><use xlink:href="#k" transform="matrix(1,0,0,1,790.9527272758534,-48.796299877001275) translate(84.72222222222223 65.1875)"/><use xlink:href="#l" transform="matrix(1,0,0,1,790.9527272758534,-48.796299877001275) translate(263.6111111111111 65.1875)"/><path d="M1293.28-39.7a6 6 0 0 1 6-6h443.9a6 6 0 0 1 6 6V75.9a6 6 0 0 1-6 6h-443.9a6 6 0 0 1-6-6z" stroke="#000" stroke-opacity="0" stroke-width="2" fill="#fff" fill-opacity="0"/><use xlink:href="#m" transform="matrix(1,0,0,1,1298.2830780011132,-40.700602790959806) translate(82.11111111111109 65.1875)"/><use xlink:href="#n" transform="matrix(1,0,0,1,1298.2830780011132,-40.700602790959806) translate(204.2222222222222 65.1875)"/><path d="M-413.82 801.64a6 6 0 0 1 6-6H36.06a6 6 0 0 1 6 6v115.6a6 6 0 0 1-6 6h-443.88a6 6 0 0 1-6-6z" stroke="#000" stroke-opacity="0" stroke-width="2" fill="#fff" fill-opacity="0"/><use xlink:href="#o" transform="matrix(1,0,0,1,-408.8235783152726,800.6372354897237) translate(40.388888888888886 65.1875)"/><use xlink:href="#p" transform="matrix(1,0,0,1,-408.8235783152726,800.6372354897237) translate(212.61111111111111 65.1875)"/><use xlink:href="#q" transform="matrix(1,0,0,1,-408.8235783152726,800.6372354897237) translate(254.72222222222223 65.1875)"/><use xlink:href="#r" transform="matrix(1,0,0,1,-408.8235783152726,800.6372354897237) translate(321.3888888888889 65.1875)"/><path d="M785.95 316.07a6 6 0 0 1 6-6h443.9a6 6 0 0 1 6 6v115.6a6 6 0 0 1-6 6h-443.9a6 6 0 0 1-6-6z" stroke="#000" stroke-opacity="0" stroke-width="2" fill="#fff" fill-opacity="0"/><g><use xlink:href="#o" transform="matrix(1,0,0,1,790.9527272758534,315.0697933008056) translate(40.388888888888886 65.1875)"/><use xlink:href="#p" transform="matrix(1,0,0,1,790.9527272758534,315.0697933008056) translate(212.61111111111111 65.1875)"/><use xlink:href="#q" transform="matrix(1,0,0,1,790.9527272758534,315.0697933008056) translate(254.72222222222223 65.1875)"/><use xlink:href="#r" transform="matrix(1,0,0,1,790.9527272758534,315.0697933008056) translate(321.3888888888889 65.1875)"/></g><path d="M1301.38 316.07a6 6 0 0 1 6-6h443.88a6 6 0 0 1 6 6v115.6a6 6 0 0 1-6 6h-443.88a6 6 0 0 1-6-6z" stroke="#000" stroke-opacity="0" stroke-width="2" fill="#fff" fill-opacity="0"/><g><use xlink:href="#s" transform="matrix(1,0,0,1,1306.3787750871543,315.0697933008056) translate(5.611111111111114 65.1875)"/><use xlink:href="#t" transform="matrix(1,0,0,1,1306.3787750871543,315.0697933008056) translate(78.83333333333334 65.1875)"/><use xlink:href="#u" transform="matrix(1,0,0,1,1306.3787750871543,315.0697933008056) translate(247.38888888888889 65.1875)"/><use xlink:href="#v" transform="matrix(1,0,0,1,1306.3787750871543,315.0697933008056) translate(289.5 65.1875)"/><use xlink:href="#w" transform="matrix(1,0,0,1,1306.3787750871543,315.0697933008056) translate(356.16666666666663 65.1875)"/></g><g><path d="M-130.8 378.47a6 6 0 0 1 6 6v133.55a6 6 0 0 1-6 6h-110.18a6 6 0 0 1-6-6V384.47a6 6 0 0 1 6-6z" stroke="#000" stroke-opacity="0" stroke-width="2" fill="#fff" fill-opacity="0"/></g><g><use xlink:href="#x" transform="matrix(6.123233995736766e-17,1,-1,6.123233995736766e-17,-129.78525341534612,383.469307278437) translate(30.962962962962962 67.38541666666667)"/><use xlink:href="#y" transform="matrix(6.123233995736766e-17,1,-1,6.123233995736766e-17,-129.78525341534612,383.469307278437) translate(60.592592592592595 67.38541666666667)"/><use xlink:href="#z" transform="matrix(6.123233995736766e-17,1,-1,6.123233995736766e-17,-129.78525341534612,383.469307278437) translate(90.22222222222223 67.38541666666667)"/></g><defs><path d="M132-132l42 118 26 5-2 9h-90l2-9 29-5-31-89-70 89 29 5-2 9h-77l2-9 26-5 85-107-36-101-26-4 2-10h86l-1 10-26 4 25 72 56-72-23-4 2-10h72l-2 10-27 4" id="A"/><path d="M94-14l47 5-1 9H13l2-9 49-5 34-192-51 17 2-10 75-39h9" id="B"/><g id="a"><use transform="matrix(0.1111111111111111,0,0,0.1111111111111111,0,0)" xlink:href="#A"/><use transform="matrix(0.07777777777777777,0,0,0.07777777777777777,24.333333333333332,5.599999999999999)" xlink:href="#B"/></g><path d="M49-231c49-12 126-14 123 43C167-96 82-75 29-27h120l-5 27H0l5-26c54-46 131-69 137-162 3-41-52-42-79-26l-11 29H41" id="C"/><g id="b"><use transform="matrix(0.1111111111111111,0,0,0.1111111111111111,0,0)" xlink:href="#A"/><use transform="matrix(0.07777777777777777,0,0,0.07777777777777777,24.333333333333332,5.599999999999999)" xlink:href="#C"/></g><path d="M158-72C160 4 65 16-1-7l7-50h12c-4 33 12 46 45 46 56 0 80-54 51-90-10-13-34-13-56-15l3-14c43 0 74-10 74-55 0-43-47-47-76-29l-11 29H36l8-46c46-13 125-14 124 44-1 38-25 59-63 64 30 4 52 19 53 51" id="D"/><g id="c"><use transform="matrix(0.1111111111111111,0,0,0.1111111111111111,0,0)" xlink:href="#A"/><use transform="matrix(0.07777777777777777,0,0,0.07777777777777777,24.333333333333332,5.599999999999999)" xlink:href="#D"/></g><path d="M53-238l-24-4 1-8h54L54-80l75-73-17-4 2-8h51c1 11-9 10-16 12l-51 49 42 92 18 4-2 8h-41L76-84 50-60 40 0H10" id="E"/><g id="d"><use transform="matrix(0.1111111111111111,0,0,0.1111111111111111,0,0)" xlink:href="#A"/><use transform="matrix(0.07777777777777777,0,0,0.07777777777777777,24.333333333333332,5.599999999999999)" xlink:href="#E"/></g><path fill="#fff" d="M240 0l2-218c-23 76-54 145-80 218h-23L58-218 59 0H30v-248h44l77 211c21-75 51-140 76-211h43V0h-30" id="F"/><path fill="#fff" d="M100-194c62-1 85 37 85 99 1 63-27 99-86 99S16-35 15-95c0-66 28-99 85-99zM99-20c44 1 53-31 53-75 0-43-8-75-51-75s-53 32-53 75 10 74 51 75" id="G"/><path fill="#fff" d="M85-194c31 0 48 13 60 33l-1-100h32l1 261h-30c-2-10 0-23-3-31C134-8 116 4 85 4 32 4 16-35 15-94c0-66 23-100 70-100zm9 24c-40 0-46 34-46 75 0 40 6 74 45 74 42 0 51-32 51-76 0-42-9-74-50-73" id="H"/><path fill="#fff" d="M100-194c63 0 86 42 84 106H49c0 40 14 67 53 68 26 1 43-12 49-29l28 8c-11 28-37 45-77 45C44 4 14-33 15-96c1-61 26-98 85-98zm52 81c6-60-76-77-97-28-3 7-6 17-6 28h103" id="I"/><path fill="#fff" d="M24 0v-261h32V0H24" id="J"/><g id="e"><use transform="matrix(0.14814814814814817,0,0,0.14814814814814817,0,0)" xlink:href="#F"/><use transform="matrix(0.14814814814814817,0,0,0.14814814814814817,44.296296296296305,0)" xlink:href="#G"/><use transform="matrix(0.14814814814814817,0,0,0.14814814814814817,73.92592592592594,0)" xlink:href="#H"/><use transform="matrix(0.14814814814814817,0,0,0.14814814814814817,103.55555555555557,0)" xlink:href="#I"/><use transform="matrix(0.14814814814814817,0,0,0.14814814814814817,133.18518518518522,0)" xlink:href="#J"/></g><path fill="#3a414a" d="M122-165c22-2 49-2 35 26C123-72 82-1 38 57 25 74-1 83-30 75l6-36h8c-3 31 34 21 46 5C41 30 51 14 60-2L27-153l-19-4 1-8h45L80-37c17-35 45-62 52-105 2-11-14-11-10-23" id="K"/><path fill="#3a414a" d="M47-236h35l-26 85H43" id="L"/><g id="f"><use transform="matrix(0.1111111111111111,0,0,0.1111111111111111,0,0)" xlink:href="#K"/><use transform="matrix(0.1111111111111111,0,0,0.1111111111111111,17.666666666666664,0)" xlink:href="#L"/></g><use transform="matrix(0.1111111111111111,0,0,0.1111111111111111,0,0)" xlink:href="#K" id="g"/><path fill="#3a414a" d="M33 0v-248h34V0H33" id="M"/><path fill="#3a414a" d="M117-194c89-4 53 116 60 194h-32v-121c0-31-8-49-39-48C34-167 62-67 57 0H25l-1-190h30c1 10-1 24 2 32 11-22 29-35 61-36" id="N"/><path fill="#3a414a" d="M85-194c31 0 48 13 60 33l-1-100h32l1 261h-30c-2-10 0-23-3-31C134-8 116 4 85 4 32 4 16-35 15-94c0-66 23-100 70-100zm9 24c-40 0-46 34-46 75 0 40 6 74 45 74 42 0 51-32 51-76 0-42-9-74-50-73" id="O"/><path fill="#3a414a" d="M24-231v-30h32v30H24zM24 0v-190h32V0H24" id="P"/><path fill="#3a414a" d="M96-169c-40 0-48 33-48 73s9 75 48 75c24 0 41-14 43-38l32 2c-6 37-31 61-74 61-59 0-76-41-82-99-10-93 101-131 147-64 4 7 5 14 7 22l-32 3c-4-21-16-35-41-35" id="Q"/><path fill="#3a414a" d="M141-36C126-15 110 5 73 4 37 3 15-17 15-53c-1-64 63-63 125-63 3-35-9-54-41-54-24 1-41 7-42 31l-33-3c5-37 33-52 76-52 45 0 72 20 72 64v82c-1 20 7 32 28 27v20c-31 9-61-2-59-35zM48-53c0 20 12 33 32 33 41-3 63-29 60-74-43 2-92-5-92 41" id="R"/><path fill="#3a414a" d="M59-47c-2 24 18 29 38 22v24C64 9 27 4 27-40v-127H5v-23h24l9-43h21v43h35v23H59v120" id="S"/><path fill="#3a414a" d="M100-194c62-1 85 37 85 99 1 63-27 99-86 99S16-35 15-95c0-66 28-99 85-99zM99-20c44 1 53-31 53-75 0-43-8-75-51-75s-53 32-53 75 10 74 51 75" id="T"/><path fill="#3a414a" d="M114-163C36-179 61-72 57 0H25l-1-190h30c1 12-1 29 2 39 6-27 23-49 58-41v29" id="U"/><path fill="#3a414a" d="M135-143c-3-34-86-38-87 0 15 53 115 12 119 90S17 21 10-45l28-5c4 36 97 45 98 0-10-56-113-15-118-90-4-57 82-63 122-42 12 7 21 19 24 35" id="V"/><g id="h"><use transform="matrix(0.1111111111111111,0,0,0.1111111111111111,0,0)" xlink:href="#M"/><use transform="matrix(0.1111111111111111,0,0,0.1111111111111111,11.11111111111111,0)" xlink:href="#N"/><use transform="matrix(0.1111111111111111,0,0,0.1111111111111111,33.33333333333333,0)" xlink:href="#O"/><use transform="matrix(0.1111111111111111,0,0,0.1111111111111111,55.55555555555555,0)" xlink:href="#P"/><use transform="matrix(0.1111111111111111,0,0,0.1111111111111111,64.33333333333333,0)" xlink:href="#Q"/><use transform="matrix(0.1111111111111111,0,0,0.1111111111111111,84.33333333333333,0)" xlink:href="#R"/><use transform="matrix(0.1111111111111111,0,0,0.1111111111111111,106.55555555555554,0)" xlink:href="#S"/><use transform="matrix(0.1111111111111111,0,0,0.1111111111111111,117.66666666666666,0)" xlink:href="#T"/><use transform="matrix(0.1111111111111111,0,0,0.1111111111111111,139.88888888888889,0)" xlink:href="#U"/><use transform="matrix(0.1111111111111111,0,0,0.1111111111111111,153.11111111111111,0)" xlink:href="#V"/></g><path fill="#3a414a" d="M101-234c-31-9-42 10-38 44h38v23H63V0H32v-167H5v-23h27c-7-52 17-82 69-68v24" id="W"/><g id="i"><use transform="matrix(0.1111111111111111,0,0,0.1111111111111111,0,0)" xlink:href="#T"/><use transform="matrix(0.1111111111111111,0,0,0.1111111111111111,22.22222222222222,0)" xlink:href="#W"/></g><path fill="#3a414a" d="M100-194c63 0 86 42 84 106H49c0 40 14 67 53 68 26 1 43-12 49-29l28 8c-11 28-37 45-77 45C44 4 14-33 15-96c1-61 26-98 85-98zm52 81c6-60-76-77-97-28-3 7-6 17-6 28h103" id="X"/><path fill="#3a414a" d="M206 0h-36l-40-164L89 0H53L-1-190h32L70-26l43-164h34l41 164 42-164h31" id="Y"/><path fill="#3a414a" d="M177-190C167-65 218 103 67 71c-23-6-38-20-44-43l32-5c15 47 100 32 89-28v-30C133-14 115 1 83 1 29 1 15-40 15-95c0-56 16-97 71-98 29-1 48 16 59 35 1-10 0-23 2-32h30zM94-22c36 0 50-32 50-73 0-42-14-75-50-75-39 0-46 34-46 75s6 73 46 73" id="Z"/><path fill="#3a414a" d="M106-169C34-169 62-67 57 0H25v-261h32l-1 103c12-21 28-36 61-36 89 0 53 116 60 194h-32v-121c2-32-8-49-39-48" id="aa"/><g id="j"><use transform="matrix(0.1111111111111111,0,0,0.1111111111111111,0,0)" xlink:href="#Q"/><use transform="matrix(0.1111111111111111,0,0,0.1111111111111111,20,0)" xlink:href="#R"/><use transform="matrix(0.1111111111111111,0,0,0.1111111111111111,42.22222222222222,0)" xlink:href="#V"/><use transform="matrix(0.1111111111111111,0,0,0.1111111111111111,62.22222222222222,0)" xlink:href="#X"/><use transform="matrix(0.1111111111111111,0,0,0.1111111111111111,84.44444444444444,0)" xlink:href="#Y"/><use transform="matrix(0.1111111111111111,0,0,0.1111111111111111,113.22222222222221,0)" xlink:href="#X"/><use transform="matrix(0.1111111111111111,0,0,0.1111111111111111,135.44444444444443,0)" xlink:href="#P"/><use transform="matrix(0.1111111111111111,0,0,0.1111111111111111,144.2222222222222,0)" xlink:href="#Z"/><use transform="matrix(0.1111111111111111,0,0,0.1111111111111111,166.44444444444443,0)" xlink:href="#aa"/><use transform="matrix(0.1111111111111111,0,0,0.1111111111111111,188.66666666666666,0)" xlink:href="#S"/></g><path fill="#3a414a" d="M266 0h-40l-56-210L115 0H75L2-248h35L96-30l15-64 43-154h32l59 218 59-218h35" id="ab"/><path fill="#3a414a" d="M143 0L79-87 56-68V0H24v-261h32v163l83-92h37l-77 82L181 0h-38" id="ac"/><path fill="#3a414a" d="M24 0v-261h32V0H24" id="ad"/><g id="k"><use transform="matrix(0.1111111111111111,0,0,0.1111111111111111,0,0)" xlink:href="#ab"/><use transform="matrix(0.1111111111111111,0,0,0.1111111111111111,36.888888888888886,0)" xlink:href="#T"/><use transform="matrix(0.1111111111111111,0,0,0.1111111111111111,59.11111111111111,0)" xlink:href="#U"/><use transform="matrix(0.1111111111111111,0,0,0.1111111111111111,72.33333333333333,0)" xlink:href="#ac"/><use transform="matrix(0.1111111111111111,0,0,0.1111111111111111,92.33333333333333,0)" xlink:href="#ad"/><use transform="matrix(0.1111111111111111,0,0,0.1111111111111111,101.1111111111111,0)" xlink:href="#T"/><use transform="matrix(0.1111111111111111,0,0,0.1111111111111111,123.33333333333333,0)" xlink:href="#R"/><use transform="matrix(0.1111111111111111,0,0,0.1111111111111111,145.55555555555554,0)" xlink:href="#O"/></g><path fill="#3a414a" d="M115-194c55 1 70 41 70 98S169 2 115 4C84 4 66-9 55-30l1 105H24l-1-265h31l2 30c10-21 28-34 59-34zm-8 174c40 0 45-34 45-75s-6-73-45-74c-42 0-51 32-51 76 0 43 10 73 51 73" id="ae"/><path fill="#3a414a" d="M141 0L90-78 38 0H4l68-98-65-92h35l48 74 47-74h35l-64 92 68 98h-35" id="af"/><path fill="#3a414a" d="M179-190L93 31C79 59 56 82 12 73V49c39 6 53-20 64-50L1-190h34L92-34l54-156h33" id="ag"/><g id="l"><use transform="matrix(0.1111111111111111,0,0,0.1111111111111111,0,0)" xlink:href="#ae"/><use transform="matrix(0.1111111111111111,0,0,0.1111111111111111,22.22222222222222,0)" xlink:href="#U"/><use transform="matrix(0.1111111111111111,0,0,0.1111111111111111,35.44444444444444,0)" xlink:href="#T"/><use transform="matrix(0.1111111111111111,0,0,0.1111111111111111,57.666666666666664,0)" xlink:href="#af"/><use transform="matrix(0.1111111111111111,0,0,0.1111111111111111,77.66666666666666,0)" xlink:href="#ag"/></g><path fill="#3a414a" d="M205 0l-28-72H64L36 0H1l101-248h38L239 0h-34zm-38-99l-47-123c-12 45-31 82-46 123h93" id="ah"/><path fill="#3a414a" d="M84 4C-5 8 30-112 23-190h32v120c0 31 7 50 39 49 72-2 45-101 50-169h31l1 190h-30c-1-10 1-25-2-33-11 22-28 36-60 37" id="ai"/><g id="m"><use transform="matrix(0.1111111111111111,0,0,0.1111111111111111,0,0)" xlink:href="#ah"/><use transform="matrix(0.1111111111111111,0,0,0.1111111111111111,26.666666666666664,0)" xlink:href="#Q"/><use transform="matrix(0.1111111111111111,0,0,0.1111111111111111,46.666666666666664,0)" xlink:href="#S"/><use transform="matrix(0.1111111111111111,0,0,0.1111111111111111,57.77777777777777,0)" xlink:href="#ai"/><use transform="matrix(0.1111111111111111,0,0,0.1111111111111111,80,0)" xlink:href="#R"/><use transform="matrix(0.1111111111111111,0,0,0.1111111111111111,102.22222222222223,0)" xlink:href="#ad"/></g><g id="n"><use transform="matrix(0.1111111111111111,0,0,0.1111111111111111,0,0)" xlink:href="#Y"/><use transform="matrix(0.1111111111111111,0,0,0.1111111111111111,28.777777777777775,0)" xlink:href="#T"/><use transform="matrix(0.1111111111111111,0,0,0.1111111111111111,51,0)" xlink:href="#U"/><use transform="matrix(0.1111111111111111,0,0,0.1111111111111111,64.22222222222223,0)" xlink:href="#ac"/><use transform="matrix(0.1111111111111111,0,0,0.1111111111111111,84.22222222222223,0)" xlink:href="#ad"/><use transform="matrix(0.1111111111111111,0,0,0.1111111111111111,93,0)" xlink:href="#T"/><use transform="matrix(0.1111111111111111,0,0,0.1111111111111111,115.22222222222224,0)" xlink:href="#R"/><use transform="matrix(0.1111111111111111,0,0,0.1111111111111111,137.44444444444446,0)" xlink:href="#O"/></g><path fill="#008a0e" d="M205 0l-28-72H64L36 0H1l101-248h38L239 0h-34zm-38-99l-47-123c-12 45-31 82-46 123h93" id="aj"/><path fill="#008a0e" d="M108 0H70L1-190h34L89-25l56-165h34" id="ak"/><path fill="#008a0e" d="M141-36C126-15 110 5 73 4 37 3 15-17 15-53c-1-64 63-63 125-63 3-35-9-54-41-54-24 1-41 7-42 31l-33-3c5-37 33-52 76-52 45 0 72 20 72 64v82c-1 20 7 32 28 27v20c-31 9-61-2-59-35zM48-53c0 20 12 33 32 33 41-3 63-29 60-74-43 2-92-5-92 41" id="al"/><path fill="#008a0e" d="M24-231v-30h32v30H24zM24 0v-190h32V0H24" id="am"/><path fill="#008a0e" d="M24 0v-261h32V0H24" id="an"/><path fill="#008a0e" d="M115-194c53 0 69 39 70 98 0 66-23 100-70 100C84 3 66-7 56-30L54 0H23l1-261h32v101c10-23 28-34 59-34zm-8 174c40 0 45-34 45-75 0-40-5-75-45-74-42 0-51 32-51 76 0 43 10 73 51 73" id="ao"/><path fill="#008a0e" d="M100-194c63 0 86 42 84 106H49c0 40 14 67 53 68 26 1 43-12 49-29l28 8c-11 28-37 45-77 45C44 4 14-33 15-96c1-61 26-98 85-98zm52 81c6-60-76-77-97-28-3 7-6 17-6 28h103" id="ap"/><g id="o"><use transform="matrix(0.1111111111111111,0,0,0.1111111111111111,0,0)" xlink:href="#aj"/><use transform="matrix(0.1111111111111111,0,0,0.1111111111111111,25.888888888888886,0)" xlink:href="#ak"/><use transform="matrix(0.1111111111111111,0,0,0.1111111111111111,45.888888888888886,0)" xlink:href="#al"/><use transform="matrix(0.1111111111111111,0,0,0.1111111111111111,68.11111111111111,0)" xlink:href="#am"/><use transform="matrix(0.1111111111111111,0,0,0.1111111111111111,76.88888888888889,0)" xlink:href="#an"/><use transform="matrix(0.1111111111111111,0,0,0.1111111111111111,85.66666666666666,0)" xlink:href="#al"/><use transform="matrix(0.1111111111111111,0,0,0.1111111111111111,107.88888888888889,0)" xlink:href="#ao"/><use transform="matrix(0.1111111111111111,0,0,0.1111111111111111,130.11111111111111,0)" xlink:href="#an"/><use transform="matrix(0.1111111111111111,0,0,0.1111111111111111,138.88888888888889,0)" xlink:href="#ap"/></g><path fill="#008a0e" d="M117-194c89-4 53 116 60 194h-32v-121c0-31-8-49-39-48C34-167 62-67 57 0H25l-1-190h30c1 10-1 24 2 32 11-22 29-35 61-36" id="aq"/><g id="p"><use transform="matrix(0.1111111111111111,0,0,0.1111111111111111,0,0)" xlink:href="#am"/><use transform="matrix(0.1111111111111111,0,0,0.1111111111111111,8.777777777777777,0)" xlink:href="#aq"/></g><path fill="#008a0e" d="M59-47c-2 24 18 29 38 22v24C64 9 27 4 27-40v-127H5v-23h24l9-43h21v43h35v23H59v120" id="ar"/><path fill="#008a0e" d="M106-169C34-169 62-67 57 0H25v-261h32l-1 103c12-21 28-36 61-36 89 0 53 116 60 194h-32v-121c2-32-8-49-39-48" id="as"/><g id="q"><use transform="matrix(0.1111111111111111,0,0,0.1111111111111111,0,0)" xlink:href="#ar"/><use transform="matrix(0.1111111111111111,0,0,0.1111111111111111,11.11111111111111,0)" xlink:href="#as"/><use transform="matrix(0.1111111111111111,0,0,0.1111111111111111,33.33333333333333,0)" xlink:href="#ap"/></g><path fill="#008a0e" d="M30 0v-248h187v28H63v79h144v27H63v87h162V0H30" id="at"/><path fill="#008a0e" d="M197 0v-115H63V0H30v-248h33v105h134v-105h34V0h-34" id="au"/><path fill="#008a0e" d="M233-177c-1 41-23 64-60 70L243 0h-38l-65-103H63V0H30v-248c88 3 205-21 203 71zM63-129c60-2 137 13 137-47 0-61-80-42-137-45v92" id="av"/><g id="r"><use transform="matrix(0.1111111111111111,0,0,0.1111111111111111,0,0)" xlink:href="#at"/><use transform="matrix(0.1111111111111111,0,0,0.1111111111111111,26.666666666666664,0)" xlink:href="#au"/><use transform="matrix(0.1111111111111111,0,0,0.1111111111111111,55.44444444444444,0)" xlink:href="#av"/></g><path fill="#e81313" d="M190 0L58-211 59 0H30v-248h39L202-35l-2-213h31V0h-41" id="aw"/><path fill="#e81313" d="M100-194c62-1 85 37 85 99 1 63-27 99-86 99S16-35 15-95c0-66 28-99 85-99zM99-20c44 1 53-31 53-75 0-43-8-75-51-75s-53 32-53 75 10 74 51 75" id="ax"/><path fill="#e81313" d="M59-47c-2 24 18 29 38 22v24C64 9 27 4 27-40v-127H5v-23h24l9-43h21v43h35v23H59v120" id="ay"/><g id="s"><use transform="matrix(0.1111111111111111,0,0,0.1111111111111111,0,0)" xlink:href="#aw"/><use transform="matrix(0.1111111111111111,0,0,0.1111111111111111,28.777777777777775,0)" xlink:href="#ax"/><use transform="matrix(0.1111111111111111,0,0,0.1111111111111111,51,0)" xlink:href="#ay"/></g><path fill="#e81313" d="M141-36C126-15 110 5 73 4 37 3 15-17 15-53c-1-64 63-63 125-63 3-35-9-54-41-54-24 1-41 7-42 31l-33-3c5-37 33-52 76-52 45 0 72 20 72 64v82c-1 20 7 32 28 27v20c-31 9-61-2-59-35zM48-53c0 20 12 33 32 33 41-3 63-29 60-74-43 2-92-5-92 41" id="az"/><path fill="#e81313" d="M108 0H70L1-190h34L89-25l56-165h34" id="aA"/><path fill="#e81313" d="M24-231v-30h32v30H24zM24 0v-190h32V0H24" id="aB"/><path fill="#e81313" d="M24 0v-261h32V0H24" id="aC"/><path fill="#e81313" d="M115-194c53 0 69 39 70 98 0 66-23 100-70 100C84 3 66-7 56-30L54 0H23l1-261h32v101c10-23 28-34 59-34zm-8 174c40 0 45-34 45-75 0-40-5-75-45-74-42 0-51 32-51 76 0 43 10 73 51 73" id="aD"/><path fill="#e81313" d="M100-194c63 0 86 42 84 106H49c0 40 14 67 53 68 26 1 43-12 49-29l28 8c-11 28-37 45-77 45C44 4 14-33 15-96c1-61 26-98 85-98zm52 81c6-60-76-77-97-28-3 7-6 17-6 28h103" id="aE"/><g id="t"><use transform="matrix(0.1111111111111111,0,0,0.1111111111111111,0,0)" xlink:href="#az"/><use transform="matrix(0.1111111111111111,0,0,0.1111111111111111,22.22222222222222,0)" xlink:href="#aA"/><use transform="matrix(0.1111111111111111,0,0,0.1111111111111111,42.22222222222222,0)" xlink:href="#az"/><use transform="matrix(0.1111111111111111,0,0,0.1111111111111111,64.44444444444444,0)" xlink:href="#aB"/><use transform="matrix(0.1111111111111111,0,0,0.1111111111111111,73.22222222222221,0)" xlink:href="#aC"/><use transform="matrix(0.1111111111111111,0,0,0.1111111111111111,81.99999999999999,0)" xlink:href="#az"/><use transform="matrix(0.1111111111111111,0,0,0.1111111111111111,104.2222222222222,0)" xlink:href="#aD"/><use transform="matrix(0.1111111111111111,0,0,0.1111111111111111,126.44444444444444,0)" xlink:href="#aC"/><use transform="matrix(0.1111111111111111,0,0,0.1111111111111111,135.2222222222222,0)" xlink:href="#aE"/></g><path fill="#e81313" d="M117-194c89-4 53 116 60 194h-32v-121c0-31-8-49-39-48C34-167 62-67 57 0H25l-1-190h30c1 10-1 24 2 32 11-22 29-35 61-36" id="aF"/><g id="u"><use transform="matrix(0.1111111111111111,0,0,0.1111111111111111,0,0)" xlink:href="#aB"/><use transform="matrix(0.1111111111111111,0,0,0.1111111111111111,8.777777777777777,0)" xlink:href="#aF"/></g><path fill="#e81313" d="M106-169C34-169 62-67 57 0H25v-261h32l-1 103c12-21 28-36 61-36 89 0 53 116 60 194h-32v-121c2-32-8-49-39-48" id="aG"/><g id="v"><use transform="matrix(0.1111111111111111,0,0,0.1111111111111111,0,0)" xlink:href="#ay"/><use transform="matrix(0.1111111111111111,0,0,0.1111111111111111,11.11111111111111,0)" xlink:href="#aG"/><use transform="matrix(0.1111111111111111,0,0,0.1111111111111111,33.33333333333333,0)" xlink:href="#aE"/></g><path fill="#e81313" d="M30 0v-248h187v28H63v79h144v27H63v87h162V0H30" id="aH"/><path fill="#e81313" d="M197 0v-115H63V0H30v-248h33v105h134v-105h34V0h-34" id="aI"/><path fill="#e81313" d="M233-177c-1 41-23 64-60 70L243 0h-38l-65-103H63V0H30v-248c88 3 205-21 203 71zM63-129c60-2 137 13 137-47 0-61-80-42-137-45v92" id="aJ"/><g id="w"><use transform="matrix(0.1111111111111111,0,0,0.1111111111111111,0,0)" xlink:href="#aH"/><use transform="matrix(0.1111111111111111,0,0,0.1111111111111111,26.666666666666664,0)" xlink:href="#aI"/><use transform="matrix(0.1111111111111111,0,0,0.1111111111111111,55.44444444444444,0)" xlink:href="#aJ"/></g><path fill="#3a414a" d="M33 0v-38h34V0H33" id="aK"/><use transform="matrix(0.14814814814814817,0,0,0.14814814814814817,0,0)" xlink:href="#aK" id="x"/><use transform="matrix(0.14814814814814817,0,0,0.14814814814814817,0,0)" xlink:href="#aK" id="y"/><use transform="matrix(0.14814814814814817,0,0,0.14814814814814817,0,0)" xlink:href="#aK" id="z"/></defs></g></svg>