<svg xmlns="http://www.w3.org/2000/svg" xmlns:xlink="http://www.w3.org/1999/xlink" xmlns:lucid="lucid" width="2170" height="896"><g transform="translate(-130 676)" lucid:page-tab-id="0_0"><path d="M0-1000h2500V500H0z" fill="#fff"/><path d="M1084.98-610.17c41.42 0 75 33.58 75 75s-33.58 75-75 75h-217.8c-41.42 0-75-33.58-75-75s33.58-75 75-75z" stroke="#343a40" stroke-width="3" fill="#3a414a"/><use xlink:href="#a" transform="matrix(1,0,0,1,797.1800278846454,-605.1704703085762) translate(40.33833333333335 40.611111111111114)"/><use xlink:href="#b" transform="matrix(1,0,0,1,797.1800278846454,-605.1704703085762) translate(136.3938888888889 40.611111111111114)"/><use xlink:href="#c" transform="matrix(1,0,0,1,797.1800278846454,-605.1704703085762) translate(197.3012962962963 40.611111111111114)"/><use xlink:href="#d" transform="matrix(1,0,0,1,797.1800278846454,-605.1704703085762) translate(38.08641975308643 75.27777777777779)"/><use xlink:href="#e" transform="matrix(1,0,0,1,797.1800278846454,-605.1704703085762) translate(151.87654320987656 75.27777777777779)"/><use xlink:href="#f" transform="matrix(1,0,0,1,797.1800278846454,-605.1704703085762) translate(196.73456790123456 75.27777777777779)"/><use xlink:href="#g" transform="matrix(1,0,0,1,797.1800278846454,-605.1704703085762) translate(294.3148148148148 75.27777777777779)"/><use xlink:href="#h" transform="matrix(1,0,0,1,797.1800278846454,-605.1704703085762) translate(133.42475308641974 109.94444444444446)"/><path d="M971.72-349.06a6.34 6.34 0 0 1 8.72 0l122.6 115.95a5.67 5.67 0 0 1 0 8.23l-122.6 115.95a6.34 6.34 0 0 1-8.72 0l-122.6-115.95a5.67 5.67 0 0 1 0-8.24z" stroke="#343a40" stroke-width="3" fill-opacity="0"/><use xlink:href="#i" transform="matrix(1,0,0,1,849.7580500441121,-348.182145758939) translate(86.68401234567904 105.2673611111111)"/><use xlink:href="#j" transform="matrix(1,0,0,1,849.7580500441121,-348.182145758939) translate(68.00500000000002 139.93402777777777)"/><path d="M976.08-458.17v89.49" stroke="#3a414a" fill="none"/><path d="M976.55-458.16h-.95v-.5h.95z" stroke="#3a414a" stroke-width=".05" fill="#3a414a"/><path d="M976.08-353.92l-4.64-14.26h9.27z" stroke="#3a414a" fill="#3a414a"/><path d="M845.34-229h-187.3a6 6 0 0 0-6 6v147.63" stroke="#3a414a" fill="none"/><path d="M845.84-229l.04.48h-.56v-.95h.56z" stroke="#3a414a" stroke-width=".05" fill="#3a414a"/><path d="M652.03-60.6l-4.63-14.27h9.26z" stroke="#3a414a" fill="#3a414a"/><path d="M499.07-51.5a6 6 0 0 1 6-6H799a6 6 0 0 1 6 6v183.53a6 6 0 0 1-6 6H505.06a6 6 0 0 1-6-6z" stroke="#343a40" stroke-width="3" fill-opacity="0"/><use xlink:href="#k" transform="matrix(1,0,0,1,504.0707664931413,-52.48748041148619) translate(12.583333333333371 63.7986111111111)"/><use xlink:href="#l" transform="matrix(1,0,0,1,504.0707664931413,-52.48748041148619) translate(87.85493827160495 63.7986111111111)"/><use xlink:href="#m" transform="matrix(1,0,0,1,504.0707664931413,-52.48748041148619) translate(171.1512345679012 63.7986111111111)"/><use xlink:href="#n" transform="matrix(1,0,0,1,504.0707664931413,-52.48748041148619) translate(13.787037037037095 98.46527777777776)"/><use xlink:href="#o" transform="matrix(1,0,0,1,504.0707664931413,-52.48748041148619) translate(113.13271604938272 98.46527777777776)"/><use xlink:href="#p" transform="matrix(1,0,0,1,504.0707664931413,-52.48748041148619) translate(212.31790123456787 98.46527777777776)"/><use xlink:href="#q" transform="matrix(1,0,0,1,504.0707664931413,-52.48748041148619) translate(244.41666666666663 98.46527777777776)"/><use xlink:href="#r" transform="matrix(1,0,0,1,504.0707664931413,-52.48748041148619) translate(65.42592592592595 133.1319444444444)"/><use xlink:href="#s" transform="matrix(1,0,0,1,504.0707664931413,-52.48748041148619) translate(115.09876543209877 133.1319444444444)"/><path d="M1106.82-229h188.06a6 6 0 0 1 6 6v147.63" stroke="#3a414a" fill="none"/><path d="M1106.83-228.52h-.55l.04-.47-.04-.47h.55z" stroke="#3a414a" stroke-width=".05" fill="#3a414a"/><path d="M1300.88-60.6l-4.64-14.27h9.27z" stroke="#3a414a" fill="#3a414a"/><path d="M1156.98-51.5a6 6 0 0 1 6-6h275.8a6 6 0 0 1 6 6v183.53a6 6 0 0 1-6 6h-275.8a6 6 0 0 1-6-6z" stroke="#343a40" stroke-width="3" fill-opacity="0"/><use xlink:href="#t" transform="matrix(1,0,0,1,1161.9784407515913,-52.48748041148619) translate(56.46604938271608 63.7986111111111)"/><use xlink:href="#u" transform="matrix(1,0,0,1,1161.9784407515913,-52.48748041148619) translate(197.45987654320987 63.7986111111111)"/><use xlink:href="#v" transform="matrix(1,0,0,1,1161.9784407515913,-52.48748041148619) translate(17.18518518518522 98.46527777777776)"/><use xlink:href="#w" transform="matrix(1,0,0,1,1161.9784407515913,-52.48748041148619) translate(139 98.46527777777776)"/><use xlink:href="#x" transform="matrix(1,0,0,1,1161.9784407515913,-52.48748041148619) translate(110.27160493827162 133.1319444444444)"/><path d="M1634.9-40.93a7.8 7.8 0 0 1 7.54-5.8h229.4a4.6 4.6 0 0 1 4.45 5.8l-43.32 162.4a7.8 7.8 0 0 1-7.55 5.8h-229.4a4.6 4.6 0 0 1-4.44-5.8z" stroke="#343a40" stroke-width="3" fill-opacity="0"/><use xlink:href="#y" transform="matrix(1,0,0,1,1595.039617159059,-41.73030887405773) translate(75.96796296296299 33.3611111111111)"/><use xlink:href="#z" transform="matrix(1,0,0,1,1595.039617159059,-41.73030887405773) translate(69.45561728395064 68.02777777777774)"/><use xlink:href="#A" transform="matrix(1,0,0,1,1595.039617159059,-41.73030887405773) translate(199.2951234567901 68.02777777777774)"/><use xlink:href="#B" transform="matrix(1,0,0,1,1595.039617159059,-41.73030887405773) translate(82.16240740740743 102.6944444444444)"/><use xlink:href="#C" transform="matrix(1,0,0,1,1595.039617159059,-41.73030887405773) translate(41.285864197530906 137.36111111111103)"/><path d="M2163.63-35c41.57 0 75.27 33.7 75.27 75.27 0 41.57-33.7 75.26-75.27 75.26h-135.26c-41.57 0-75.27-33.7-75.27-75.26 0-41.57 33.7-75.27 75.27-75.27z" stroke="#343a40" stroke-width="3" fill-opacity="0"/><g><use xlink:href="#D" transform="matrix(1,0,0,1,1958.1007935665266,-29.996112408601604) translate(63.138888888888914 75.13541666666666)"/></g><path d="M1446.77 40.27h148.53" stroke="#3a414a" fill="none"/><path d="M1446.8 40.74h-.53v-.95h.52z" stroke="#3a414a" stroke-width=".05" fill="#3a414a"/><path d="M1610.07 40.27l-14.27 4.63v-9.27z" stroke="#3a414a" fill="#3a414a"/><path d="M1856.68 40.27h78.54" stroke="#3a414a" fill="none"/><path d="M1856.7 40.74h-.64l.25-.95h.4z" stroke="#3a414a" stroke-width=".05" fill="#3a414a"/><path d="M1949.98 40.27l-14.26 4.63v-9.27z" stroke="#3a414a" fill="#3a414a"/><path d="M1593.7-351.68c41.56 0 75.26 33.7 75.26 75.27 0 41.56-33.7 75.26-75.27 75.26h-135.27c-41.57 0-75.27-33.7-75.27-75.27 0-41.58 33.7-75.28 75.27-75.28z" stroke="#00c2a8" stroke-width="2" fill="#d7faf5"/><g><use xlink:href="#E" transform="matrix(1,0,0,1,1388.1600265565735,-346.6751610351397) translate(61.89080246913585 40.7361111111111)"/><use xlink:href="#F" transform="matrix(1,0,0,1,1388.1600265565735,-346.6751610351397) translate(198.06981481481478 40.7361111111111)"/><use xlink:href="#G" transform="matrix(1,0,0,1,1388.1600265565735,-346.6751610351397) translate(9.003086419753146 75.40277777777774)"/><use xlink:href="#H" transform="matrix(1,0,0,1,1388.1600265565735,-346.6751610351397) translate(161.31172839506172 75.40277777777774)"/><use xlink:href="#I" transform="matrix(1,0,0,1,1388.1600265565735,-346.6751610351397) translate(193.41049382716048 75.40277777777774)"/><use xlink:href="#J" transform="matrix(1,0,0,1,1388.1600265565735,-346.6751610351397) translate(40.9463580246914 110.0694444444444)"/><use xlink:href="#K" transform="matrix(1,0,0,1,1388.1600265565735,-346.6751610351397) translate(81.06981481481483 110.0694444444444)"/></g><path d="M1526.06 39.77v-223.53M1526.06 39.76v.5" stroke="#3a414a" fill="none"/><path d="M1526.06-198.53l4.63 14.27h-9.28z" stroke="#3a414a" fill="#3a414a"/><path d="M94-334.73a6 6 0 0 1 6-6h340.25a6 6 0 0 1 6 6v488a6 6 0 0 1-6 6H100a6 6 0 0 1-6-6z" fill="none"/><path d="M446.25 159.27c-5.53 0-10-4.48-10-10v-230c0-5.52-4.48-10-10-10 5.52 0 10-4.48 10-10v-230c0-5.52 4.47-10 10-10" stroke="#282c33" stroke-width="2" fill="none"/><g><use xlink:href="#L" transform="matrix(1,0,0,1,99,-335.73030887405776) translate(65.96296296296302 234.33333333333334)"/><use xlink:href="#M" transform="matrix(1,0,0,1,99,-335.73030887405776) translate(73.37037037037042 234.33333333333334)"/><use xlink:href="#N" transform="matrix(1,0,0,1,99,-335.73030887405776) translate(182.7777777777778 234.33333333333334)"/><use xlink:href="#O" transform="matrix(1,0,0,1,99,-335.73030887405776) translate(85 266.3333333333333)"/><use xlink:href="#P" transform="matrix(1,0,0,1,99,-335.73030887405776) translate(234.55555555555554 266.3333333333333)"/></g><path d="M420.25-609.17a6 6 0 0 1 6-6h322a6 6 0 0 1 6 6v148a6 6 0 0 1-6 6h-322a6 6 0 0 1-6-6z" fill="none"/><path d="M754.25-455.17c-5.53 0-10-4.48-10-10v-60c0-5.52-4.48-10-10-10 5.52 0 10-4.48 10-10v-60c0-5.52 4.47-10 10-10" stroke="#282c33" stroke-width="2" fill="none"/><g><use xlink:href="#Q" transform="matrix(1,0,0,1,425.24574866990383,-610.1704703085762) translate(59.40123456790124 65.22222222222223)"/><use xlink:href="#R" transform="matrix(1,0,0,1,425.24574866990383,-610.1704703085762) translate(152.83333333333334 65.22222222222223)"/><use xlink:href="#S" transform="matrix(1,0,0,1,425.24574866990383,-610.1704703085762) translate(243.7530864197531 65.22222222222223)"/><use xlink:href="#T" transform="matrix(1,0,0,1,425.24574866990383,-610.1704703085762) translate(154.25925925925927 94.55555555555556)"/><use xlink:href="#U" transform="matrix(1,0,0,1,425.24574866990383,-610.1704703085762) translate(242.462962962963 94.55555555555556)"/></g><path d="M2096-37v-142.42" stroke="#3a414a" fill="none"/><path d="M2096.47-36.5h-.94v-.5h.94z" stroke="#3a414a" stroke-width=".05" fill="#3a414a"/><path d="M2096-194.18l4.64 14.26h-9.28z" stroke="#3a414a" fill="#3a414a"/><path d="M2163.63-347.33c41.57 0 75.27 33.7 75.27 75.26 0 41.57-33.7 75.27-75.27 75.27h-135.26c-41.57 0-75.27-33.7-75.27-75.27 0-41.57 33.7-75.26 75.27-75.26z" stroke="#eec4ff" stroke-width="2" fill="#f4d9ff"/><g><use xlink:href="#E" transform="matrix(1,0,0,1,1958.1007935665266,-342.3336202533768) translate(61.89080246913584 58.3611111111111)"/><use xlink:href="#V" transform="matrix(1,0,0,1,1958.1007935665266,-342.3336202533768) translate(198.06981481481478 58.3611111111111)"/><use xlink:href="#W" transform="matrix(1,0,0,1,1958.1007935665266,-342.3336202533768) translate(35.44944444444449 93.02777777777776)"/><use xlink:href="#X" transform="matrix(1,0,0,1,1958.1007935665266,-342.3336202533768) translate(96.27660493827163 93.02777777777776)"/></g><defs><path fill="#fff" d="M212-179c-10-28-35-45-73-45-59 0-87 40-87 99 0 60 29 101 89 101 43 0 62-24 78-52l27 14C228-24 195 4 139 4 59 4 22-46 18-125c-6-104 99-153 187-111 19 9 31 26 39 46" id="Y"/><path fill="#fff" d="M24 0v-261h32V0H24" id="Z"/><path fill="#fff" d="M24-231v-30h32v30H24zM24 0v-190h32V0H24" id="aa"/><path fill="#fff" d="M100-194c63 0 86 42 84 106H49c0 40 14 67 53 68 26 1 43-12 49-29l28 8c-11 28-37 45-77 45C44 4 14-33 15-96c1-61 26-98 85-98zm52 81c6-60-76-77-97-28-3 7-6 17-6 28h103" id="ab"/><path fill="#fff" d="M117-194c89-4 53 116 60 194h-32v-121c0-31-8-49-39-48C34-167 62-67 57 0H25l-1-190h30c1 10-1 24 2 32 11-22 29-35 61-36" id="ac"/><path fill="#fff" d="M59-47c-2 24 18 29 38 22v24C64 9 27 4 27-40v-127H5v-23h24l9-43h21v43h35v23H59v120" id="ad"/><path fill="#fff" d="M135-143c-3-34-86-38-87 0 15 53 115 12 119 90S17 21 10-45l28-5c4 36 97 45 98 0-10-56-113-15-118-90-4-57 82-63 122-42 12 7 21 19 24 35" id="ae"/><g id="a"><use transform="matrix(0.08024691358024691,0,0,0.08024691358024691,0,0)" xlink:href="#Y"/><use transform="matrix(0.08024691358024691,0,0,0.08024691358024691,20.78395061728395,0)" xlink:href="#Z"/><use transform="matrix(0.08024691358024691,0,0,0.08024691358024691,27.123456790123456,0)" xlink:href="#aa"/><use transform="matrix(0.08024691358024691,0,0,0.08024691358024691,33.46296296296296,0)" xlink:href="#ab"/><use transform="matrix(0.08024691358024691,0,0,0.08024691358024691,49.51234567901234,0)" xlink:href="#ac"/><use transform="matrix(0.08024691358024691,0,0,0.08024691358024691,65.56172839506172,0)" xlink:href="#ad"/><use transform="matrix(0.08024691358024691,0,0,0.08024691358024691,73.58641975308642,0)" xlink:href="#ae"/></g><path fill="#fff" d="M206 0h-36l-40-164L89 0H53L-1-190h32L70-26l43-164h34l41 164 42-164h31" id="af"/><path fill="#fff" d="M106-169C34-169 62-67 57 0H25v-261h32l-1 103c12-21 28-36 61-36 89 0 53 116 60 194h-32v-121c2-32-8-49-39-48" id="ag"/><path fill="#fff" d="M100-194c62-1 85 37 85 99 1 63-27 99-86 99S16-35 15-95c0-66 28-99 85-99zM99-20c44 1 53-31 53-75 0-43-8-75-51-75s-53 32-53 75 10 74 51 75" id="ah"/><g id="b"><use transform="matrix(0.08024691358024691,0,0,0.08024691358024691,0,0)" xlink:href="#af"/><use transform="matrix(0.08024691358024691,0,0,0.08024691358024691,20.78395061728395,0)" xlink:href="#ag"/><use transform="matrix(0.08024691358024691,0,0,0.08024691358024691,36.83333333333333,0)" xlink:href="#ah"/></g><path fill="#fff" d="M141-36C126-15 110 5 73 4 37 3 15-17 15-53c-1-64 63-63 125-63 3-35-9-54-41-54-24 1-41 7-42 31l-33-3c5-37 33-52 76-52 45 0 72 20 72 64v82c-1 20 7 32 28 27v20c-31 9-61-2-59-35zM48-53c0 20 12 33 32 33 41-3 63-29 60-74-43 2-92-5-92 41" id="ai"/><path fill="#fff" d="M96-169c-40 0-48 33-48 73s9 75 48 75c24 0 41-14 43-38l32 2c-6 37-31 61-74 61-59 0-76-41-82-99-10-93 101-131 147-64 4 7 5 14 7 22l-32 3c-4-21-16-35-41-35" id="aj"/><g id="c"><use transform="matrix(0.08024691358024691,0,0,0.08024691358024691,0,0)" xlink:href="#ai"/><use transform="matrix(0.08024691358024691,0,0,0.08024691358024691,16.049382716049383,0)" xlink:href="#aj"/><use transform="matrix(0.08024691358024691,0,0,0.08024691358024691,30.493827160493826,0)" xlink:href="#aj"/><use transform="matrix(0.08024691358024691,0,0,0.08024691358024691,44.93827160493827,0)" xlink:href="#ab"/><use transform="matrix(0.08024691358024691,0,0,0.08024691358024691,60.987654320987644,0)" xlink:href="#ae"/><use transform="matrix(0.08024691358024691,0,0,0.08024691358024691,75.43209876543209,0)" xlink:href="#ae"/><use transform="matrix(0.08024691358024691,0,0,0.08024691358024691,89.87654320987654,0)" xlink:href="#ab"/><use transform="matrix(0.08024691358024691,0,0,0.08024691358024691,105.9259259259259,0)" xlink:href="#ae"/></g><path fill="#fff" d="M114-163C36-179 61-72 57 0H25l-1-190h30c1 12-1 29 2 39 6-27 23-49 58-41v29" id="ak"/><path fill="#fff" d="M108 0H70L1-190h34L89-25l56-165h34" id="al"/><g id="d"><use transform="matrix(0.08024691358024691,0,0,0.08024691358024691,0,0)" xlink:href="#ae"/><use transform="matrix(0.08024691358024691,0,0,0.08024691358024691,14.444444444444443,0)" xlink:href="#ab"/><use transform="matrix(0.08024691358024691,0,0,0.08024691358024691,30.493827160493826,0)" xlink:href="#ak"/><use transform="matrix(0.08024691358024691,0,0,0.08024691358024691,40.04320987654321,0)" xlink:href="#al"/><use transform="matrix(0.08024691358024691,0,0,0.08024691358024691,54.48765432098765,0)" xlink:href="#aa"/><use transform="matrix(0.08024691358024691,0,0,0.08024691358024691,60.82716049382716,0)" xlink:href="#aj"/><use transform="matrix(0.08024691358024691,0,0,0.08024691358024691,75.2716049382716,0)" xlink:href="#ab"/><use transform="matrix(0.08024691358024691,0,0,0.08024691358024691,91.32098765432096,0)" xlink:href="#ae"/></g><g id="e"><use transform="matrix(0.08024691358024691,0,0,0.08024691358024691,0,0)" xlink:href="#al"/><use transform="matrix(0.08024691358024691,0,0,0.08024691358024691,14.444444444444443,0)" xlink:href="#aa"/><use transform="matrix(0.08024691358024691,0,0,0.08024691358024691,20.78395061728395,0)" xlink:href="#ai"/></g><path fill="#fff" d="M143 0L79-87 56-68V0H24v-261h32v163l83-92h37l-77 82L181 0h-38" id="am"/><path fill="#fff" d="M16-82v-28h88v28H16" id="an"/><g id="f"><use transform="matrix(0.08024691358024691,0,0,0.08024691358024691,0,0)" xlink:href="#af"/><use transform="matrix(0.08024691358024691,0,0,0.08024691358024691,20.78395061728395,0)" xlink:href="#ai"/><use transform="matrix(0.08024691358024691,0,0,0.08024691358024691,36.83333333333333,0)" xlink:href="#Z"/><use transform="matrix(0.08024691358024691,0,0,0.08024691358024691,43.172839506172835,0)" xlink:href="#am"/><use transform="matrix(0.08024691358024691,0,0,0.08024691358024691,57.61728395061728,0)" xlink:href="#an"/><use transform="matrix(0.08024691358024691,0,0,0.08024691358024691,67.16666666666666,0)" xlink:href="#aa"/><use transform="matrix(0.08024691358024691,0,0,0.08024691358024691,73.50617283950616,0)" xlink:href="#ac"/></g><g id="g"><use transform="matrix(0.08024691358024691,0,0,0.08024691358024691,0,0)" xlink:href="#ah"/><use transform="matrix(0.08024691358024691,0,0,0.08024691358024691,16.049382716049383,0)" xlink:href="#ak"/></g><path fill="#fff" d="M101-234c-31-9-42 10-38 44h38v23H63V0H32v-167H5v-23h27c-7-52 17-82 69-68v24" id="ao"/><g id="h"><use transform="matrix(0.08024691358024691,0,0,0.08024691358024691,0,0)" xlink:href="#ak"/><use transform="matrix(0.08024691358024691,0,0,0.08024691358024691,9.549382716049383,0)" xlink:href="#ab"/><use transform="matrix(0.08024691358024691,0,0,0.08024691358024691,25.598765432098762,0)" xlink:href="#ao"/><use transform="matrix(0.08024691358024691,0,0,0.08024691358024691,33.623456790123456,0)" xlink:href="#ab"/><use transform="matrix(0.08024691358024691,0,0,0.08024691358024691,49.672839506172835,0)" xlink:href="#ak"/><use transform="matrix(0.08024691358024691,0,0,0.08024691358024691,59.22222222222221,0)" xlink:href="#ak"/><use transform="matrix(0.08024691358024691,0,0,0.08024691358024691,68.7716049382716,0)" xlink:href="#ai"/><use transform="matrix(0.08024691358024691,0,0,0.08024691358024691,84.82098765432096,0)" xlink:href="#Z"/></g><path fill="#3a414a" d="M33 0v-248h34V0H33" id="ap"/><path fill="#3a414a" d="M117-194c89-4 53 116 60 194h-32v-121c0-31-8-49-39-48C34-167 62-67 57 0H25l-1-190h30c1 10-1 24 2 32 11-22 29-35 61-36" id="aq"/><path fill="#3a414a" d="M59-47c-2 24 18 29 38 22v24C64 9 27 4 27-40v-127H5v-23h24l9-43h21v43h35v23H59v120" id="ar"/><path fill="#3a414a" d="M141-36C126-15 110 5 73 4 37 3 15-17 15-53c-1-64 63-63 125-63 3-35-9-54-41-54-24 1-41 7-42 31l-33-3c5-37 33-52 76-52 45 0 72 20 72 64v82c-1 20 7 32 28 27v20c-31 9-61-2-59-35zM48-53c0 20 12 33 32 33 41-3 63-29 60-74-43 2-92-5-92 41" id="as"/><path fill="#3a414a" d="M143 0L79-87 56-68V0H24v-261h32v163l83-92h37l-77 82L181 0h-38" id="at"/><path fill="#3a414a" d="M100-194c63 0 86 42 84 106H49c0 40 14 67 53 68 26 1 43-12 49-29l28 8c-11 28-37 45-77 45C44 4 14-33 15-96c1-61 26-98 85-98zm52 81c6-60-76-77-97-28-3 7-6 17-6 28h103" id="au"/><g id="i"><use transform="matrix(0.08024691358024688,0,0,0.08024691358024688,0,0)" xlink:href="#ap"/><use transform="matrix(0.08024691358024688,0,0,0.08024691358024688,8.024691358024688,0)" xlink:href="#aq"/><use transform="matrix(0.08024691358024688,0,0,0.08024691358024688,24.07407407407406,0)" xlink:href="#ar"/><use transform="matrix(0.08024691358024688,0,0,0.08024691358024688,32.09876543209875,0)" xlink:href="#as"/><use transform="matrix(0.08024691358024688,0,0,0.08024691358024688,48.14814814814812,0)" xlink:href="#at"/><use transform="matrix(0.08024691358024688,0,0,0.08024691358024688,62.59259259259257,0)" xlink:href="#au"/></g><path fill="#3a414a" d="M185-189c-5-48-123-54-124 2 14 75 158 14 163 119 3 78-121 87-175 55-17-10-28-26-33-46l33-7c5 56 141 63 141-1 0-78-155-14-162-118-5-82 145-84 179-34 5 7 8 16 11 25" id="av"/><path fill="#3a414a" d="M96-169c-40 0-48 33-48 73s9 75 48 75c24 0 41-14 43-38l32 2c-6 37-31 61-74 61-59 0-76-41-82-99-10-93 101-131 147-64 4 7 5 14 7 22l-32 3c-4-21-16-35-41-35" id="aw"/><path fill="#3a414a" d="M114-163C36-179 61-72 57 0H25l-1-190h30c1 12-1 29 2 39 6-27 23-49 58-41v29" id="ax"/><g id="j"><use transform="matrix(0.08024691358024688,0,0,0.08024691358024688,0,0)" xlink:href="#av"/><use transform="matrix(0.08024691358024688,0,0,0.08024691358024688,19.259259259259252,0)" xlink:href="#aw"/><use transform="matrix(0.08024691358024688,0,0,0.08024691358024688,33.703703703703695,0)" xlink:href="#ax"/><use transform="matrix(0.08024691358024688,0,0,0.08024691358024688,43.253086419753075,0)" xlink:href="#au"/><use transform="matrix(0.08024691358024688,0,0,0.08024691358024688,59.302469135802454,0)" xlink:href="#au"/><use transform="matrix(0.08024691358024688,0,0,0.08024691358024688,75.35185185185183,0)" xlink:href="#aq"/><use transform="matrix(0.08024691358024688,0,0,0.08024691358024688,91.40123456790121,0)" xlink:href="#au"/><use transform="matrix(0.08024691358024688,0,0,0.08024691358024688,107.45061728395059,0)" xlink:href="#ax"/></g><path fill="#3a414a" d="M160-131c35 5 61 23 61 61C221 17 115-2 30 0v-248c76 3 177-17 177 60 0 33-19 50-47 57zm-97-11c50-1 110 9 110-42 0-47-63-36-110-37v79zm0 115c55-2 124 14 124-45 0-56-70-42-124-44v89" id="ay"/><path fill="#3a414a" d="M24-231v-30h32v30H24zM24 0v-190h32V0H24" id="az"/><path fill="#3a414a" d="M101-234c-31-9-42 10-38 44h38v23H63V0H32v-167H5v-23h27c-7-52 17-82 69-68v24" id="aA"/><path fill="#3a414a" d="M68-38c1 34 0 65-14 84H32c9-13 17-26 17-46H33v-38h35" id="aB"/><g id="k"><use transform="matrix(0.08024691358024688,0,0,0.08024691358024688,0,0)" xlink:href="#ay"/><use transform="matrix(0.08024691358024688,0,0,0.08024691358024688,19.259259259259252,0)" xlink:href="#ax"/><use transform="matrix(0.08024691358024688,0,0,0.08024691358024688,28.808641975308632,0)" xlink:href="#az"/><use transform="matrix(0.08024691358024688,0,0,0.08024691358024688,35.14814814814814,0)" xlink:href="#au"/><use transform="matrix(0.08024691358024688,0,0,0.08024691358024688,51.19753086419752,0)" xlink:href="#aA"/><use transform="matrix(0.08024691358024688,0,0,0.08024691358024688,59.22222222222221,0)" xlink:href="#aB"/></g><path fill="#3a414a" d="M135-143c-3-34-86-38-87 0 15 53 115 12 119 90S17 21 10-45l28-5c4 36 97 45 98 0-10-56-113-15-118-90-4-57 82-63 122-42 12 7 21 19 24 35" id="aC"/><path fill="#3a414a" d="M177-190C167-65 218 103 67 71c-23-6-38-20-44-43l32-5c15 47 100 32 89-28v-30C133-14 115 1 83 1 29 1 15-40 15-95c0-56 16-97 71-98 29-1 48 16 59 35 1-10 0-23 2-32h30zM94-22c36 0 50-32 50-73 0-42-14-75-50-75-39 0-46 34-46 75s6 73 46 73" id="aD"/><path fill="#3a414a" d="M24 0v-261h32V0H24" id="aE"/><g id="l"><use transform="matrix(0.08024691358024688,0,0,0.08024691358024688,0,0)" xlink:href="#aC"/><use transform="matrix(0.08024691358024688,0,0,0.08024691358024688,14.44444444444444,0)" xlink:href="#az"/><use transform="matrix(0.08024691358024688,0,0,0.08024691358024688,20.783950617283942,0)" xlink:href="#aq"/><use transform="matrix(0.08024691358024688,0,0,0.08024691358024688,36.833333333333314,0)" xlink:href="#aD"/><use transform="matrix(0.08024691358024688,0,0,0.08024691358024688,52.882716049382694,0)" xlink:href="#aE"/><use transform="matrix(0.08024691358024688,0,0,0.08024691358024688,59.2222222222222,0)" xlink:href="#au"/></g><path fill="#3a414a" d="M100-194c62-1 85 37 85 99 1 63-27 99-86 99S16-35 15-95c0-66 28-99 85-99zM99-20c44 1 53-31 53-75 0-43-8-75-51-75s-53 32-53 75 10 74 51 75" id="aF"/><g id="m"><use transform="matrix(0.08024691358024688,0,0,0.08024691358024688,0,0)" xlink:href="#aC"/><use transform="matrix(0.08024691358024688,0,0,0.08024691358024688,14.44444444444444,0)" xlink:href="#au"/><use transform="matrix(0.08024691358024688,0,0,0.08024691358024688,30.493827160493815,0)" xlink:href="#aC"/><use transform="matrix(0.08024691358024688,0,0,0.08024691358024688,44.93827160493825,0)" xlink:href="#aC"/><use transform="matrix(0.08024691358024688,0,0,0.08024691358024688,59.382716049382694,0)" xlink:href="#az"/><use transform="matrix(0.08024691358024688,0,0,0.08024691358024688,65.7222222222222,0)" xlink:href="#aF"/><use transform="matrix(0.08024691358024688,0,0,0.08024691358024688,81.77160493827158,0)" xlink:href="#aq"/><use transform="matrix(0.08024691358024688,0,0,0.08024691358024688,97.82098765432097,0)" xlink:href="#aC"/></g><path fill="#3a414a" d="M206 0h-36l-40-164L89 0H53L-1-190h32L70-26l43-164h34l41 164 42-164h31" id="aG"/><path fill="#3a414a" d="M106-169C34-169 62-67 57 0H25v-261h32l-1 103c12-21 28-36 61-36 89 0 53 116 60 194h-32v-121c2-32-8-49-39-48" id="aH"/><path fill="#3a414a" d="M84 4C-5 8 30-112 23-190h32v120c0 31 7 50 39 49 72-2 45-101 50-169h31l1 190h-30c-1-10 1-25-2-33-11 22-28 36-60 37" id="aI"/><g id="n"><use transform="matrix(0.08024691358024688,0,0,0.08024691358024688,0,0)" xlink:href="#aG"/><use transform="matrix(0.08024691358024688,0,0,0.08024691358024688,20.783950617283942,0)" xlink:href="#az"/><use transform="matrix(0.08024691358024688,0,0,0.08024691358024688,27.123456790123445,0)" xlink:href="#ar"/><use transform="matrix(0.08024691358024688,0,0,0.08024691358024688,35.14814814814813,0)" xlink:href="#aH"/><use transform="matrix(0.08024691358024688,0,0,0.08024691358024688,51.1975308641975,0)" xlink:href="#aF"/><use transform="matrix(0.08024691358024688,0,0,0.08024691358024688,67.24691358024688,0)" xlink:href="#aI"/><use transform="matrix(0.08024691358024688,0,0,0.08024691358024688,83.29629629629626,0)" xlink:href="#ar"/></g><g id="o"><use transform="matrix(0.08024691358024688,0,0,0.08024691358024688,0,0)" xlink:href="#ax"/><use transform="matrix(0.08024691358024688,0,0,0.08024691358024688,9.54938271604938,0)" xlink:href="#au"/><use transform="matrix(0.08024691358024688,0,0,0.08024691358024688,25.598765432098755,0)" xlink:href="#aA"/><use transform="matrix(0.08024691358024688,0,0,0.08024691358024688,33.62345679012344,0)" xlink:href="#au"/><use transform="matrix(0.08024691358024688,0,0,0.08024691358024688,49.67283950617282,0)" xlink:href="#ax"/><use transform="matrix(0.08024691358024688,0,0,0.08024691358024688,59.2222222222222,0)" xlink:href="#ax"/><use transform="matrix(0.08024691358024688,0,0,0.08024691358024688,68.77160493827158,0)" xlink:href="#as"/><use transform="matrix(0.08024691358024688,0,0,0.08024691358024688,84.82098765432096,0)" xlink:href="#aE"/></g><g id="p"><use transform="matrix(0.08024691358024688,0,0,0.08024691358024688,0,0)" xlink:href="#ar"/><use transform="matrix(0.08024691358024688,0,0,0.08024691358024688,8.024691358024688,0)" xlink:href="#aF"/></g><path fill="#3a414a" d="M212-179c-10-28-35-45-73-45-59 0-87 40-87 99 0 60 29 101 89 101 43 0 62-24 78-52l27 14C228-24 195 4 139 4 59 4 22-46 18-125c-6-104 99-153 187-111 19 9 31 26 39 46" id="aJ"/><path fill="#3a414a" d="M127-220V0H93v-220H8v-28h204v28h-85" id="aK"/><g id="q"><use transform="matrix(0.08024691358024688,0,0,0.08024691358024688,0,0)" xlink:href="#aJ"/><use transform="matrix(0.08024691358024688,0,0,0.08024691358024688,20.783950617283942,0)" xlink:href="#aK"/></g><g id="r"><use transform="matrix(0.08024691358024688,0,0,0.08024691358024688,0,0)" xlink:href="#as"/><use transform="matrix(0.08024691358024688,0,0,0.08024691358024688,16.049382716049376,0)" xlink:href="#ax"/><use transform="matrix(0.08024691358024688,0,0,0.08024691358024688,25.598765432098755,0)" xlink:href="#au"/></g><path fill="#3a414a" d="M141 0L90-78 38 0H4l68-98-65-92h35l48 74 47-74h35l-64 92 68 98h-35" id="aL"/><path fill="#3a414a" d="M85-194c31 0 48 13 60 33l-1-100h32l1 261h-30c-2-10 0-23-3-31C134-8 116 4 85 4 32 4 16-35 15-94c0-66 23-100 70-100zm9 24c-40 0-46 34-46 75 0 40 6 74 45 74 42 0 51-32 51-76 0-42-9-74-50-73" id="aM"/><g id="s"><use transform="matrix(0.08024691358024688,0,0,0.08024691358024688,0,0)" xlink:href="#au"/><use transform="matrix(0.08024691358024688,0,0,0.08024691358024688,16.049382716049376,0)" xlink:href="#aL"/><use transform="matrix(0.08024691358024688,0,0,0.08024691358024688,30.493827160493815,0)" xlink:href="#aw"/><use transform="matrix(0.08024691358024688,0,0,0.08024691358024688,44.93827160493825,0)" xlink:href="#aE"/><use transform="matrix(0.08024691358024688,0,0,0.08024691358024688,51.27777777777776,0)" xlink:href="#aI"/><use transform="matrix(0.08024691358024688,0,0,0.08024691358024688,67.32716049382714,0)" xlink:href="#aM"/><use transform="matrix(0.08024691358024688,0,0,0.08024691358024688,83.37654320987652,0)" xlink:href="#au"/><use transform="matrix(0.08024691358024688,0,0,0.08024691358024688,99.42592592592591,0)" xlink:href="#aM"/></g><path fill="#3a414a" d="M205 0l-28-72H64L36 0H1l101-248h38L239 0h-34zm-38-99l-47-123c-12 45-31 82-46 123h93" id="aN"/><path fill="#3a414a" d="M210-169c-67 3-38 105-44 169h-31v-121c0-29-5-50-35-48C34-165 62-65 56 0H25l-1-190h30c1 10-1 24 2 32 10-44 99-50 107 0 11-21 27-35 58-36 85-2 47 119 55 194h-31v-121c0-29-5-49-35-48" id="aO"/><g id="t"><use transform="matrix(0.08024691358024688,0,0,0.08024691358024688,0,0)" xlink:href="#aN"/><use transform="matrix(0.08024691358024688,0,0,0.08024691358024688,19.259259259259252,0)" xlink:href="#aM"/><use transform="matrix(0.08024691358024688,0,0,0.08024691358024688,35.30864197530863,0)" xlink:href="#aO"/><use transform="matrix(0.08024691358024688,0,0,0.08024691358024688,59.302469135802454,0)" xlink:href="#az"/><use transform="matrix(0.08024691358024688,0,0,0.08024691358024688,65.64197530864196,0)" xlink:href="#aC"/><use transform="matrix(0.08024691358024688,0,0,0.08024691358024688,80.0864197530864,0)" xlink:href="#aC"/><use transform="matrix(0.08024691358024688,0,0,0.08024691358024688,94.53086419753085,0)" xlink:href="#az"/><use transform="matrix(0.08024691358024688,0,0,0.08024691358024688,100.87037037037035,0)" xlink:href="#aF"/><use transform="matrix(0.08024691358024688,0,0,0.08024691358024688,116.91975308641972,0)" xlink:href="#aq"/></g><g id="u"><use transform="matrix(0.08024691358024688,0,0,0.08024691358024688,0,0)" xlink:href="#ar"/><use transform="matrix(0.08024691358024688,0,0,0.08024691358024688,8.024691358024688,0)" xlink:href="#aF"/></g><path fill="#3a414a" d="M108 0H70L1-190h34L89-25l56-165h34" id="aP"/><g id="v"><use transform="matrix(0.08024691358024688,0,0,0.08024691358024688,0,0)" xlink:href="#az"/><use transform="matrix(0.08024691358024688,0,0,0.08024691358024688,6.339506172839504,0)" xlink:href="#aq"/><use transform="matrix(0.08024691358024688,0,0,0.08024691358024688,22.38888888888888,0)" xlink:href="#ar"/><use transform="matrix(0.08024691358024688,0,0,0.08024691358024688,30.41358024691357,0)" xlink:href="#au"/><use transform="matrix(0.08024691358024688,0,0,0.08024691358024688,46.46296296296295,0)" xlink:href="#aq"/><use transform="matrix(0.08024691358024688,0,0,0.08024691358024688,62.51234567901233,0)" xlink:href="#aC"/><use transform="matrix(0.08024691358024688,0,0,0.08024691358024688,76.95679012345677,0)" xlink:href="#az"/><use transform="matrix(0.08024691358024688,0,0,0.08024691358024688,83.29629629629628,0)" xlink:href="#aP"/><use transform="matrix(0.08024691358024688,0,0,0.08024691358024688,97.74074074074072,0)" xlink:href="#au"/></g><g id="w"><use transform="matrix(0.08024691358024688,0,0,0.08024691358024688,0,0)" xlink:href="#ar"/><use transform="matrix(0.08024691358024688,0,0,0.08024691358024688,8.024691358024688,0)" xlink:href="#ax"/><use transform="matrix(0.08024691358024688,0,0,0.08024691358024688,17.57407407407407,0)" xlink:href="#au"/><use transform="matrix(0.08024691358024688,0,0,0.08024691358024688,33.62345679012344,0)" xlink:href="#as"/><use transform="matrix(0.08024691358024688,0,0,0.08024691358024688,49.67283950617282,0)" xlink:href="#ar"/><use transform="matrix(0.08024691358024688,0,0,0.08024691358024688,57.69753086419751,0)" xlink:href="#aO"/><use transform="matrix(0.08024691358024688,0,0,0.08024691358024688,81.69135802469133,0)" xlink:href="#au"/><use transform="matrix(0.08024691358024688,0,0,0.08024691358024688,97.7407407407407,0)" xlink:href="#aq"/><use transform="matrix(0.08024691358024688,0,0,0.08024691358024688,113.79012345679008,0)" xlink:href="#ar"/></g><path fill="#3a414a" d="M87 75C49 33 22-17 22-94c0-76 28-126 65-167h31c-38 41-64 92-64 168S80 34 118 75H87" id="aQ"/><path fill="#3a414a" d="M33-261c38 41 65 92 65 168S71 34 33 75H2C39 34 66-17 66-93S39-220 2-261h31" id="aR"/><g id="x"><use transform="matrix(0.08024691358024688,0,0,0.08024691358024688,0,0)" xlink:href="#aQ"/><use transform="matrix(0.08024691358024688,0,0,0.08024691358024688,9.54938271604938,0)" xlink:href="#aJ"/><use transform="matrix(0.08024691358024688,0,0,0.08024691358024688,30.33333333333332,0)" xlink:href="#aK"/><use transform="matrix(0.08024691358024688,0,0,0.08024691358024688,47.90740740740739,0)" xlink:href="#aR"/></g><path fill="#3a414a" d="M115-194c53 0 69 39 70 98 0 66-23 100-70 100C84 3 66-7 56-30L54 0H23l1-261h32v101c10-23 28-34 59-34zm-8 174c40 0 45-34 45-75 0-40-5-75-45-74-42 0-51 32-51 76 0 43 10 73 51 73" id="aS"/><path fill="#3a414a" d="M145-31C134-9 116 4 85 4 32 4 16-35 15-94c0-59 17-99 70-100 32-1 48 14 60 33 0-11-1-24 2-32h30l-1 268h-32zM93-21c41 0 51-33 51-76s-8-73-50-73c-40 0-46 35-46 75s5 74 45 74" id="aT"/><g id="y"><use transform="matrix(0.08024691358024688,0,0,0.08024691358024688,0,0)" xlink:href="#av"/><use transform="matrix(0.08024691358024688,0,0,0.08024691358024688,19.259259259259252,0)" xlink:href="#aI"/><use transform="matrix(0.08024691358024688,0,0,0.08024691358024688,35.30864197530863,0)" xlink:href="#aS"/><use transform="matrix(0.08024691358024688,0,0,0.08024691358024688,51.35802469135801,0)" xlink:href="#aC"/><use transform="matrix(0.08024691358024688,0,0,0.08024691358024688,65.80246913580245,0)" xlink:href="#au"/><use transform="matrix(0.08024691358024688,0,0,0.08024691358024688,81.85185185185183,0)" xlink:href="#aT"/><use transform="matrix(0.08024691358024688,0,0,0.08024691358024688,97.90123456790121,0)" xlink:href="#aI"/><use transform="matrix(0.08024691358024688,0,0,0.08024691358024688,113.95061728395059,0)" xlink:href="#au"/><use transform="matrix(0.08024691358024688,0,0,0.08024691358024688,129.99999999999997,0)" xlink:href="#aq"/><use transform="matrix(0.08024691358024688,0,0,0.08024691358024688,146.04938271604934,0)" xlink:href="#ar"/></g><g id="z"><use transform="matrix(0.08024691358024688,0,0,0.08024691358024688,0,0)" xlink:href="#ar"/><use transform="matrix(0.08024691358024688,0,0,0.08024691358024688,8.024691358024688,0)" xlink:href="#ax"/><use transform="matrix(0.08024691358024688,0,0,0.08024691358024688,17.57407407407407,0)" xlink:href="#au"/><use transform="matrix(0.08024691358024688,0,0,0.08024691358024688,33.62345679012344,0)" xlink:href="#as"/><use transform="matrix(0.08024691358024688,0,0,0.08024691358024688,49.67283950617282,0)" xlink:href="#ar"/><use transform="matrix(0.08024691358024688,0,0,0.08024691358024688,57.69753086419751,0)" xlink:href="#aO"/><use transform="matrix(0.08024691358024688,0,0,0.08024691358024688,81.69135802469133,0)" xlink:href="#au"/><use transform="matrix(0.08024691358024688,0,0,0.08024691358024688,97.7407407407407,0)" xlink:href="#aq"/><use transform="matrix(0.08024691358024688,0,0,0.08024691358024688,113.79012345679008,0)" xlink:href="#ar"/></g><path fill="#3a414a" d="M234-2c-28 10-62 0-77-18C117 19 8 12 13-65c3-43 29-61 60-76-25-40-17-114 47-108 35 3 59 15 59 50 0 44-40 53-71 69 14 26 32 50 51 72 14-21 24-43 30-72l26 8c-9 33-21 57-38 82 13 13 33 22 57 15v23zM97-151c25-10 52-18 56-48-1-18-13-29-33-29-42 0-39 50-23 77zM42-66c-3 51 71 58 98 28-20-24-41-51-56-80-23 10-40 24-42 52" id="aU"/><use transform="matrix(0.08024691358024688,0,0,0.08024691358024688,0,0)" xlink:href="#aU" id="A"/><path fill="#3a414a" d="M115-194c55 1 70 41 70 98S169 2 115 4C84 4 66-9 55-30l1 105H24l-1-265h31l2 30c10-21 28-34 59-34zm-8 174c40 0 45-34 45-75s-6-73-45-74c-42 0-51 32-51 76 0 43 10 73 51 73" id="aV"/><g id="B"><use transform="matrix(0.08024691358024688,0,0,0.08024691358024688,0,0)" xlink:href="#aA"/><use transform="matrix(0.08024691358024688,0,0,0.08024691358024688,8.024691358024688,0)" xlink:href="#aF"/><use transform="matrix(0.08024691358024688,0,0,0.08024691358024688,24.07407407407406,0)" xlink:href="#aE"/><use transform="matrix(0.08024691358024688,0,0,0.08024691358024688,30.413580246913565,0)" xlink:href="#aE"/><use transform="matrix(0.08024691358024688,0,0,0.08024691358024688,36.75308641975307,0)" xlink:href="#aF"/><use transform="matrix(0.08024691358024688,0,0,0.08024691358024688,52.80246913580244,0)" xlink:href="#aG"/><use transform="matrix(0.08024691358024688,0,0,0.08024691358024688,73.58641975308637,0)" xlink:href="#aI"/><use transform="matrix(0.08024691358024688,0,0,0.08024691358024688,89.63580246913575,0)" xlink:href="#aV"/></g><g id="C"><use transform="matrix(0.08024691358024688,0,0,0.08024691358024688,0,0)" xlink:href="#as"/><use transform="matrix(0.08024691358024688,0,0,0.08024691358024688,16.049382716049376,0)" xlink:href="#aC"/><use transform="matrix(0.08024691358024688,0,0,0.08024691358024688,30.493827160493815,0)" xlink:href="#aC"/><use transform="matrix(0.08024691358024688,0,0,0.08024691358024688,44.93827160493825,0)" xlink:href="#au"/><use transform="matrix(0.08024691358024688,0,0,0.08024691358024688,60.98765432098763,0)" xlink:href="#aC"/><use transform="matrix(0.08024691358024688,0,0,0.08024691358024688,75.43209876543207,0)" xlink:href="#aC"/><use transform="matrix(0.08024691358024688,0,0,0.08024691358024688,89.8765432098765,0)" xlink:href="#aO"/><use transform="matrix(0.08024691358024688,0,0,0.08024691358024688,113.87037037037034,0)" xlink:href="#au"/><use transform="matrix(0.08024691358024688,0,0,0.08024691358024688,129.91975308641972,0)" xlink:href="#aq"/><use transform="matrix(0.08024691358024688,0,0,0.08024691358024688,145.96913580246908,0)" xlink:href="#ar"/><use transform="matrix(0.08024691358024688,0,0,0.08024691358024688,153.99382716049377,0)" xlink:href="#aC"/></g><path fill="#3a414a" d="M30-248c118-7 216 8 213 122C240-48 200 0 122 0H30v-248zM63-27c89 8 146-16 146-99s-60-101-146-95v194" id="aW"/><g id="D"><use transform="matrix(0.09259259259259256,0,0,0.09259259259259256,0,0)" xlink:href="#aW"/><use transform="matrix(0.09259259259259256,0,0,0.09259259259259256,23.981481481481474,0)" xlink:href="#az"/><use transform="matrix(0.09259259259259256,0,0,0.09259259259259256,31.296296296296283,0)" xlink:href="#aC"/><use transform="matrix(0.09259259259259256,0,0,0.09259259259259256,47.96296296296295,0)" xlink:href="#aw"/><use transform="matrix(0.09259259259259256,0,0,0.09259259259259256,64.6296296296296,0)" xlink:href="#aH"/><use transform="matrix(0.09259259259259256,0,0,0.09259259259259256,83.14814814814812,0)" xlink:href="#as"/><use transform="matrix(0.09259259259259256,0,0,0.09259259259259256,101.66666666666663,0)" xlink:href="#ax"/><use transform="matrix(0.09259259259259256,0,0,0.09259259259259256,112.68518518518515,0)" xlink:href="#aD"/><use transform="matrix(0.09259259259259256,0,0,0.09259259259259256,131.20370370370367,0)" xlink:href="#au"/></g><path fill="#3a414a" d="M30-248c87 1 191-15 191 75 0 78-77 80-158 76V0H30v-248zm33 125c57 0 124 11 124-50 0-59-68-47-124-48v98" id="aX"/><g id="E"><use transform="matrix(0.08024691358024688,0,0,0.08024691358024688,0,0)" xlink:href="#aX"/><use transform="matrix(0.08024691358024688,0,0,0.08024691358024688,19.259259259259252,0)" xlink:href="#ax"/><use transform="matrix(0.08024691358024688,0,0,0.08024691358024688,28.808641975308632,0)" xlink:href="#au"/><use transform="matrix(0.08024691358024688,0,0,0.08024691358024688,44.858024691358004,0)" xlink:href="#aM"/><use transform="matrix(0.08024691358024688,0,0,0.08024691358024688,60.90740740740739,0)" xlink:href="#az"/><use transform="matrix(0.08024691358024688,0,0,0.08024691358024688,67.2469135802469,0)" xlink:href="#aw"/><use transform="matrix(0.08024691358024688,0,0,0.08024691358024688,81.69135802469134,0)" xlink:href="#ar"/><use transform="matrix(0.08024691358024688,0,0,0.08024691358024688,89.71604938271601,0)" xlink:href="#az"/><use transform="matrix(0.08024691358024688,0,0,0.08024691358024688,96.05555555555553,0)" xlink:href="#aF"/><use transform="matrix(0.08024691358024688,0,0,0.08024691358024688,112.10493827160491,0)" xlink:href="#aq"/></g><path fill="#3a414a" d="M101-251c82-7 93 87 43 132L82-64C71-53 59-42 53-27h129V0H18c2-99 128-94 128-182 0-28-16-43-45-43s-46 15-49 41l-32-3c6-41 34-60 81-64" id="aY"/><use transform="matrix(0.08024691358024688,0,0,0.08024691358024688,0,0)" xlink:href="#aY" id="F"/><g id="G"><use transform="matrix(0.08024691358024688,0,0,0.08024691358024688,0,0)" xlink:href="#aw"/><use transform="matrix(0.08024691358024688,0,0,0.08024691358024688,14.44444444444444,0)" xlink:href="#as"/><use transform="matrix(0.08024691358024688,0,0,0.08024691358024688,30.493827160493815,0)" xlink:href="#aC"/><use transform="matrix(0.08024691358024688,0,0,0.08024691358024688,44.93827160493825,0)" xlink:href="#au"/><use transform="matrix(0.08024691358024688,0,0,0.08024691358024688,60.98765432098763,0)" xlink:href="#aG"/><use transform="matrix(0.08024691358024688,0,0,0.08024691358024688,81.77160493827157,0)" xlink:href="#au"/><use transform="matrix(0.08024691358024688,0,0,0.08024691358024688,97.82098765432094,0)" xlink:href="#az"/><use transform="matrix(0.08024691358024688,0,0,0.08024691358024688,104.16049382716045,0)" xlink:href="#aD"/><use transform="matrix(0.08024691358024688,0,0,0.08024691358024688,120.20987654320983,0)" xlink:href="#aH"/><use transform="matrix(0.08024691358024688,0,0,0.08024691358024688,136.2592592592592,0)" xlink:href="#ar"/></g><g id="H"><use transform="matrix(0.08024691358024688,0,0,0.08024691358024688,0,0)" xlink:href="#as"/><use transform="matrix(0.08024691358024688,0,0,0.08024691358024688,16.049382716049376,0)" xlink:href="#ar"/></g><g id="I"><use transform="matrix(0.08024691358024688,0,0,0.08024691358024688,0,0)" xlink:href="#aA"/><use transform="matrix(0.08024691358024688,0,0,0.08024691358024688,8.024691358024688,0)" xlink:href="#aF"/><use transform="matrix(0.08024691358024688,0,0,0.08024691358024688,24.07407407407406,0)" xlink:href="#aE"/><use transform="matrix(0.08024691358024688,0,0,0.08024691358024688,30.413580246913565,0)" xlink:href="#aE"/><use transform="matrix(0.08024691358024688,0,0,0.08024691358024688,36.75308641975307,0)" xlink:href="#aF"/><use transform="matrix(0.08024691358024688,0,0,0.08024691358024688,52.80246913580244,0)" xlink:href="#aG"/></g><g id="J"><use transform="matrix(0.08024691358024688,0,0,0.08024691358024688,0,0)" xlink:href="#aI"/><use transform="matrix(0.08024691358024688,0,0,0.08024691358024688,16.049382716049376,0)" xlink:href="#aV"/></g><g id="K"><use transform="matrix(0.08024691358024688,0,0,0.08024691358024688,0,0)" xlink:href="#as"/><use transform="matrix(0.08024691358024688,0,0,0.08024691358024688,16.049382716049376,0)" xlink:href="#aC"/><use transform="matrix(0.08024691358024688,0,0,0.08024691358024688,30.493827160493815,0)" xlink:href="#aC"/><use transform="matrix(0.08024691358024688,0,0,0.08024691358024688,44.93827160493825,0)" xlink:href="#au"/><use transform="matrix(0.08024691358024688,0,0,0.08024691358024688,60.98765432098763,0)" xlink:href="#aC"/><use transform="matrix(0.08024691358024688,0,0,0.08024691358024688,75.43209876543207,0)" xlink:href="#aC"/><use transform="matrix(0.08024691358024688,0,0,0.08024691358024688,89.8765432098765,0)" xlink:href="#aO"/><use transform="matrix(0.08024691358024688,0,0,0.08024691358024688,113.87037037037034,0)" xlink:href="#au"/><use transform="matrix(0.08024691358024688,0,0,0.08024691358024688,129.91975308641972,0)" xlink:href="#aq"/><use transform="matrix(0.08024691358024688,0,0,0.08024691358024688,145.96913580246908,0)" xlink:href="#ar"/></g><g id="M"><use transform="matrix(0.07407407407407407,0,0,0.07407407407407407,0,0)" xlink:href="#aX"/><use transform="matrix(0.07407407407407407,0,0,0.07407407407407407,17.77777777777778,0)" xlink:href="#ax"/><use transform="matrix(0.07407407407407407,0,0,0.07407407407407407,26.592592592592595,0)" xlink:href="#aF"/><use transform="matrix(0.07407407407407407,0,0,0.07407407407407407,41.407407407407405,0)" xlink:href="#aD"/><use transform="matrix(0.07407407407407407,0,0,0.07407407407407407,56.22222222222221,0)" xlink:href="#ax"/><use transform="matrix(0.07407407407407407,0,0,0.07407407407407407,65.03703703703702,0)" xlink:href="#as"/><use transform="matrix(0.07407407407407407,0,0,0.07407407407407407,79.85185185185183,0)" xlink:href="#aO"/></g><g id="N"><use transform="matrix(0.07407407407407407,0,0,0.07407407407407407,0,0)" xlink:href="#aw"/><use transform="matrix(0.07407407407407407,0,0,0.07407407407407407,13.333333333333332,0)" xlink:href="#as"/><use transform="matrix(0.07407407407407407,0,0,0.07407407407407407,28.148148148148145,0)" xlink:href="#ar"/><use transform="matrix(0.07407407407407407,0,0,0.07407407407407407,35.55555555555555,0)" xlink:href="#au"/><use transform="matrix(0.07407407407407407,0,0,0.07407407407407407,50.37037037037037,0)" xlink:href="#aD"/><use transform="matrix(0.07407407407407407,0,0,0.07407407407407407,65.18518518518518,0)" xlink:href="#aF"/><use transform="matrix(0.07407407407407407,0,0,0.07407407407407407,79.99999999999999,0)" xlink:href="#ax"/><use transform="matrix(0.07407407407407407,0,0,0.07407407407407407,88.8148148148148,0)" xlink:href="#az"/><use transform="matrix(0.07407407407407407,0,0,0.07407407407407407,94.66666666666664,0)" xlink:href="#au"/><use transform="matrix(0.07407407407407407,0,0,0.07407407407407407,109.48148148148145,0)" xlink:href="#aC"/><use transform="matrix(0.07407407407407407,0,0,0.07407407407407407,122.81481481481478,0)" xlink:href="#aB"/></g><g id="O"><use transform="matrix(0.07407407407407407,0,0,0.07407407407407407,0,0)" xlink:href="#as"/><use transform="matrix(0.07407407407407407,0,0,0.07407407407407407,14.814814814814813,0)" xlink:href="#aC"/><use transform="matrix(0.07407407407407407,0,0,0.07407407407407407,28.148148148148145,0)" xlink:href="#aC"/><use transform="matrix(0.07407407407407407,0,0,0.07407407407407407,41.48148148148148,0)" xlink:href="#au"/><use transform="matrix(0.07407407407407407,0,0,0.07407407407407407,56.29629629629629,0)" xlink:href="#aC"/><use transform="matrix(0.07407407407407407,0,0,0.07407407407407407,69.62962962962962,0)" xlink:href="#aC"/><use transform="matrix(0.07407407407407407,0,0,0.07407407407407407,82.96296296296295,0)" xlink:href="#aO"/><use transform="matrix(0.07407407407407407,0,0,0.07407407407407407,105.11111111111109,0)" xlink:href="#au"/><use transform="matrix(0.07407407407407407,0,0,0.07407407407407407,119.9259259259259,0)" xlink:href="#aq"/><use transform="matrix(0.07407407407407407,0,0,0.07407407407407407,134.7407407407407,0)" xlink:href="#ar"/></g><g id="P"><use transform="matrix(0.07407407407407407,0,0,0.07407407407407407,0,0)" xlink:href="#aC"/><use transform="matrix(0.07407407407407407,0,0,0.07407407407407407,13.333333333333332,0)" xlink:href="#aw"/><use transform="matrix(0.07407407407407407,0,0,0.07407407407407407,26.666666666666664,0)" xlink:href="#aF"/><use transform="matrix(0.07407407407407407,0,0,0.07407407407407407,41.48148148148148,0)" xlink:href="#ax"/><use transform="matrix(0.07407407407407407,0,0,0.07407407407407407,50.29629629629629,0)" xlink:href="#au"/><use transform="matrix(0.07407407407407407,0,0,0.07407407407407407,65.11111111111111,0)" xlink:href="#aC"/></g><path fill="#3a414a" d="M233-177c-1 41-23 64-60 70L243 0h-38l-65-103H63V0H30v-248c88 3 205-21 203 71zM63-129c60-2 137 13 137-47 0-61-80-42-137-45v92" id="aZ"/><g id="Q"><use transform="matrix(0.06790123456790123,0,0,0.06790123456790123,0,0)" xlink:href="#aZ"/><use transform="matrix(0.06790123456790123,0,0,0.06790123456790123,17.586419753086417,0)" xlink:href="#au"/><use transform="matrix(0.06790123456790123,0,0,0.06790123456790123,31.166666666666664,0)" xlink:href="#aA"/><use transform="matrix(0.06790123456790123,0,0,0.06790123456790123,37.95679012345679,0)" xlink:href="#au"/><use transform="matrix(0.06790123456790123,0,0,0.06790123456790123,51.53703703703703,0)" xlink:href="#ax"/><use transform="matrix(0.06790123456790123,0,0,0.06790123456790123,59.61728395061728,0)" xlink:href="#ax"/><use transform="matrix(0.06790123456790123,0,0,0.06790123456790123,67.69753086419752,0)" xlink:href="#as"/><use transform="matrix(0.06790123456790123,0,0,0.06790123456790123,81.27777777777777,0)" xlink:href="#aE"/></g><g id="R"><use transform="matrix(0.06790123456790123,0,0,0.06790123456790123,0,0)" xlink:href="#av"/><use transform="matrix(0.06790123456790123,0,0,0.06790123456790123,16.296296296296294,0)" xlink:href="#aF"/><use transform="matrix(0.06790123456790123,0,0,0.06790123456790123,29.87654320987654,0)" xlink:href="#aI"/><use transform="matrix(0.06790123456790123,0,0,0.06790123456790123,43.456790123456784,0)" xlink:href="#ax"/><use transform="matrix(0.06790123456790123,0,0,0.06790123456790123,51.53703703703703,0)" xlink:href="#aw"/><use transform="matrix(0.06790123456790123,0,0,0.06790123456790123,63.75925925925925,0)" xlink:href="#au"/><use transform="matrix(0.06790123456790123,0,0,0.06790123456790123,77.33950617283949,0)" xlink:href="#aB"/></g><g id="S"><use transform="matrix(0.06790123456790123,0,0,0.06790123456790123,0,0)" xlink:href="#aN"/><use transform="matrix(0.06790123456790123,0,0,0.06790123456790123,16.296296296296294,0)" xlink:href="#aD"/><use transform="matrix(0.06790123456790123,0,0,0.06790123456790123,29.87654320987654,0)" xlink:href="#au"/><use transform="matrix(0.06790123456790123,0,0,0.06790123456790123,43.456790123456784,0)" xlink:href="#aB"/></g><g id="T"><use transform="matrix(0.06790123456790123,0,0,0.06790123456790123,0,0)" xlink:href="#av"/><use transform="matrix(0.06790123456790123,0,0,0.06790123456790123,16.296296296296294,0)" xlink:href="#aw"/><use transform="matrix(0.06790123456790123,0,0,0.06790123456790123,28.518518518518515,0)" xlink:href="#aH"/><use transform="matrix(0.06790123456790123,0,0,0.06790123456790123,42.09876543209876,0)" xlink:href="#aF"/><use transform="matrix(0.06790123456790123,0,0,0.06790123456790123,55.67901234567901,0)" xlink:href="#aF"/><use transform="matrix(0.06790123456790123,0,0,0.06790123456790123,69.25925925925925,0)" xlink:href="#aE"/><use transform="matrix(0.06790123456790123,0,0,0.06790123456790123,74.62345679012346,0)" xlink:href="#aB"/></g><g id="U"><use transform="matrix(0.06790123456790123,0,0,0.06790123456790123,0,0)" xlink:href="#aW"/><use transform="matrix(0.06790123456790123,0,0,0.06790123456790123,17.586419753086417,0)" xlink:href="#as"/><use transform="matrix(0.06790123456790123,0,0,0.06790123456790123,31.166666666666664,0)" xlink:href="#ar"/><use transform="matrix(0.06790123456790123,0,0,0.06790123456790123,37.95679012345679,0)" xlink:href="#au"/></g><path fill="#3a414a" d="M27 0v-27h64v-190l-56 39v-29l58-41h29v221h61V0H27" id="ba"/><use transform="matrix(0.08024691358024688,0,0,0.08024691358024688,0,0)" xlink:href="#ba" id="V"/><g id="W"><use transform="matrix(0.08024691358024688,0,0,0.08024691358024688,0,0)" xlink:href="#aA"/><use transform="matrix(0.08024691358024688,0,0,0.08024691358024688,8.024691358024688,0)" xlink:href="#az"/><use transform="matrix(0.08024691358024688,0,0,0.08024691358024688,14.364197530864192,0)" xlink:href="#aq"/><use transform="matrix(0.08024691358024688,0,0,0.08024691358024688,30.41358024691357,0)" xlink:href="#as"/><use transform="matrix(0.08024691358024688,0,0,0.08024691358024688,46.46296296296295,0)" xlink:href="#aE"/></g><g id="X"><use transform="matrix(0.08024691358024688,0,0,0.08024691358024688,0,0)" xlink:href="#aw"/><use transform="matrix(0.08024691358024688,0,0,0.08024691358024688,14.44444444444444,0)" xlink:href="#as"/><use transform="matrix(0.08024691358024688,0,0,0.08024691358024688,30.493827160493815,0)" xlink:href="#aC"/><use transform="matrix(0.08024691358024688,0,0,0.08024691358024688,44.93827160493825,0)" xlink:href="#au"/><use transform="matrix(0.08024691358024688,0,0,0.08024691358024688,60.98765432098763,0)" xlink:href="#aG"/><use transform="matrix(0.08024691358024688,0,0,0.08024691358024688,81.77160493827157,0)" xlink:href="#au"/><use transform="matrix(0.08024691358024688,0,0,0.08024691358024688,97.82098765432094,0)" xlink:href="#az"/><use transform="matrix(0.08024691358024688,0,0,0.08024691358024688,104.16049382716045,0)" xlink:href="#aD"/><use transform="matrix(0.08024691358024688,0,0,0.08024691358024688,120.20987654320983,0)" xlink:href="#aH"/><use transform="matrix(0.08024691358024688,0,0,0.08024691358024688,136.2592592592592,0)" xlink:href="#ar"/></g></defs></g></svg>